<?xml version="1.0" encoding="utf-8"?>
<!-- Generator: Adobe Illustrator 23.0.3, SVG Export Plug-In . SVG Version: 6.00 Build 0)  -->
<svg version="1.1" id="Layer_1" xmlns="http://www.w3.org/2000/svg" xmlns:xlink="http://www.w3.org/1999/xlink" x="0px" y="0px"
	 viewBox="0 0 496 496" style="enable-background:new 0 0 496 496;" xml:space="preserve">
<style type="text/css">
	.st0{fill:#FF7824;}
</style>
<path class="st0" d="M480,68H16C7.2,68,0,75.2,0,84v328c0,8.8,7.2,16,16,16h464c8.8,0,16-7.2,16-16V84C496,75.2,488.8,68,480,68z
	 M480,84v64H16V84H480z M16,412V164h464v248H16z"/>
<path class="st0" d="M48,140c13.3,0,24-10.7,24-24S61.3,92,48,92s-24,10.7-24,24S34.7,140,48,140z M48,108c4.4,0,8,3.6,8,8
	s-3.6,8-8,8s-8-3.6-8-8S43.6,108,48,108z"/>
<path class="st0" d="M104,140c13.3,0,24-10.7,24-24s-10.7-24-24-24s-24,10.7-24,24S90.7,140,104,140z M104,108c4.4,0,8,3.6,8,8
	s-3.6,8-8,8s-8-3.6-8-8S99.6,108,104,108z"/>
<path class="st0" d="M160,140c13.3,0,24-10.7,24-24s-10.7-24-24-24s-24,10.7-24,24S146.7,140,160,140z M160,108c4.4,0,8,3.6,8,8
	s-3.6,8-8,8s-8-3.6-8-8S155.6,108,160,108z"/>
<path class="st0" d="M456,116h8c4.4,0,8-3.6,8-8s-3.6-8-8-8h-8c-4.4,0-8,3.6-8,8S451.6,116,456,116z"/>
<path class="st0" d="M368,116h56c4.4,0,8-3.6,8-8s-3.6-8-8-8h-56c-4.4,0-8,3.6-8,8S363.6,116,368,116z"/>
<path class="st0" d="M144,260h-8v-24c0-22.1-17.9-40-40-40s-40,17.9-40,40v24h-8c-4.4,0-8,3.6-8,8v96c0,4.4,3.6,8,8,8h96
	c4.4,0,8-3.6,8-8v-96C152,263.6,148.4,260,144,260z M72,236c0-13.3,10.7-24,24-24s24,10.7,24,24v24H72V236z M136,356H56v-80h80V356z
	"/>
<path class="st0" d="M448,196H176c-4.4,0-8,3.6-8,8v64c0,4.4,3.6,8,8,8h272c4.4,0,8-3.6,8-8v-64C456,199.6,452.4,196,448,196z
	 M440,260H184v-48h256V260z"/>
<path class="st0" d="M448,292H296c-4.4,0-8,3.6-8,8s3.6,8,8,8h152c4.4,0,8-3.6,8-8S452.4,292,448,292z"/>
<path class="st0" d="M176,308h88c4.4,0,8-3.6,8-8s-3.6-8-8-8h-88c-4.4,0-8,3.6-8,8S171.6,308,176,308z"/>
<path class="st0" d="M448,324H336c-4.4,0-8,3.6-8,8s3.6,8,8,8h112c4.4,0,8-3.6,8-8S452.4,324,448,324z"/>
<path class="st0" d="M176,340h136c4.4,0,8-3.6,8-8s-3.6-8-8-8H176c-4.4,0-8,3.6-8,8S171.6,340,176,340z"/>
<path class="st0" d="M376,356H176c-4.4,0-8,3.6-8,8s3.6,8,8,8h200c4.4,0,8-3.6,8-8S380.4,356,376,356z"/>
</svg>
