<?xml version="1.0" encoding="utf-8"?>
<!-- Generator: Adobe Illustrator 23.0.3, SVG Export Plug-In . SVG Version: 6.00 Build 0)  -->
<svg version="1.1" id="Capa_1" xmlns="http://www.w3.org/2000/svg" xmlns:xlink="http://www.w3.org/1999/xlink" x="0px" y="0px"
	 viewBox="0 0 480 480" style="enable-background:new 0 0 480 480;" xml:space="preserve">
<style type="text/css">
	.st0{fill:#FF7824;}
</style>
<g>
	<g>
		<path class="st0" d="M232,96h-88V8c0-4.4-3.6-8-8-8H8C3.6,0,0,3.6,0,8v224c0,4.4,3.6,8,8,8h40h48h40h96c4.4,0,8-3.6,8-8V104
			C240,99.6,236.4,96,232,96z M88,224H56v-48h32V224z M128,104v120h-24v-48h8v-16H96H48H32v16h8v48H16V16h112V104z M224,224h-80V112
			h80V224z"/>
	</g>
</g>
<g>
	<g>
		<path class="st0" d="M472,336h-88v-96c0-4.4-3.6-8-8-8h-96c-4.4,0-8,3.6-8,8v96h-88c-4.4,0-8,3.6-8,8v128c0,4.4,3.6,8,8,8h96h32
			h32h32h96c4.4,0,8-3.6,8-8V344C480,339.6,476.4,336,472,336z M272,464h-80V352h80V464z M336,464h-16v-32h16V464z M368,344v120h-16
			v-40c0-4.4-3.6-8-8-8h-32c-4.4,0-8,3.6-8,8v40h-16V344v-96h80V344z M464,464h-80V352h80V464z"/>
	</g>
</g>
<g>
	<g>
		<rect x="32" y="32" class="st0" width="16" height="16"/>
	</g>
</g>
<g>
	<g>
		<rect x="64" y="32" class="st0" width="16" height="16"/>
	</g>
</g>
<g>
	<g>
		<rect x="96" y="32" class="st0" width="16" height="16"/>
	</g>
</g>
<g>
	<g>
		<rect x="32" y="64" class="st0" width="16" height="16"/>
	</g>
</g>
<g>
	<g>
		<rect x="64" y="64" class="st0" width="16" height="16"/>
	</g>
</g>
<g>
	<g>
		<rect x="96" y="64" class="st0" width="16" height="16"/>
	</g>
</g>
<g>
	<g>
		<rect x="32" y="96" class="st0" width="16" height="16"/>
	</g>
</g>
<g>
	<g>
		<rect x="64" y="96" class="st0" width="16" height="16"/>
	</g>
</g>
<g>
	<g>
		<rect x="96" y="96" class="st0" width="16" height="16"/>
	</g>
</g>
<g>
	<g>
		<rect x="160" y="128" class="st0" width="16" height="16"/>
	</g>
</g>
<g>
	<g>
		<rect x="192" y="128" class="st0" width="16" height="16"/>
	</g>
</g>
<g>
	<g>
		<rect x="160" y="160" class="st0" width="16" height="16"/>
	</g>
</g>
<g>
	<g>
		<rect x="192" y="160" class="st0" width="16" height="16"/>
	</g>
</g>
<g>
	<g>
		<rect x="304" y="264" class="st0" width="16" height="16"/>
	</g>
</g>
<g>
	<g>
		<rect x="336" y="264" class="st0" width="16" height="16"/>
	</g>
</g>
<g>
	<g>
		<rect x="304" y="296" class="st0" width="16" height="16"/>
	</g>
</g>
<g>
	<g>
		<rect x="336" y="296" class="st0" width="16" height="16"/>
	</g>
</g>
<g>
	<g>
		<rect x="304" y="328" class="st0" width="16" height="16"/>
	</g>
</g>
<g>
	<g>
		<rect x="336" y="328" class="st0" width="16" height="16"/>
	</g>
</g>
<g>
	<g>
		<rect x="304" y="360" class="st0" width="16" height="16"/>
	</g>
</g>
<g>
	<g>
		<rect x="336" y="360" class="st0" width="16" height="16"/>
	</g>
</g>
<g>
	<g>
		<rect x="400" y="368" class="st0" width="16" height="16"/>
	</g>
</g>
<g>
	<g>
		<rect x="432" y="368" class="st0" width="16" height="16"/>
	</g>
</g>
<g>
	<g>
		<rect x="400" y="400" class="st0" width="16" height="16"/>
	</g>
</g>
<g>
	<g>
		<rect x="432" y="400" class="st0" width="16" height="16"/>
	</g>
</g>
<g>
	<g>
		<rect x="208" y="368" class="st0" width="16" height="16"/>
	</g>
</g>
<g>
	<g>
		<rect x="240" y="368" class="st0" width="16" height="16"/>
	</g>
</g>
<g>
	<g>
		<rect x="208" y="400" class="st0" width="16" height="16"/>
	</g>
</g>
<g>
	<g>
		<rect x="240" y="400" class="st0" width="16" height="16"/>
	</g>
</g>
<g>
	<g>
		<rect x="160" y="48" class="st0" width="16" height="16"/>
	</g>
</g>
<g>
	<g>
		<rect x="192" y="48" class="st0" width="16" height="16"/>
	</g>
</g>
<g>
	<g>
		<rect x="224" y="48" class="st0" width="16" height="16"/>
	</g>
</g>
<g>
	<g>
		<rect x="256" y="48" class="st0" width="16" height="16"/>
	</g>
</g>
<g>
	<g>
		<rect x="288" y="48" class="st0" width="16" height="16"/>
	</g>
</g>
<g>
	<g>
		<rect x="320" y="48" class="st0" width="16" height="16"/>
	</g>
</g>
<g>
	<g>
		<rect x="352" y="48" class="st0" width="16" height="16"/>
	</g>
</g>
<g>
	<g>
		<rect x="384" y="48" class="st0" width="16" height="16"/>
	</g>
</g>
<g>
	<g>
		<rect x="416" y="48" class="st0" width="16" height="16"/>
	</g>
</g>
<g>
	<g>
		<rect x="416" y="80" class="st0" width="16" height="16"/>
	</g>
</g>
<g>
	<g>
		<rect x="416" y="112" class="st0" width="16" height="16"/>
	</g>
</g>
<g>
	<g>
		<rect x="416" y="144" class="st0" width="16" height="16"/>
	</g>
</g>
<g>
	<g>
		<rect x="416" y="176" class="st0" width="16" height="16"/>
	</g>
</g>
<g>
	<g>
		<rect x="416" y="208" class="st0" width="16" height="16"/>
	</g>
</g>
<g>
	<g>
		<rect x="416" y="240" class="st0" width="16" height="16"/>
	</g>
</g>
<g>
	<g>
		<rect x="416" y="272" class="st0" width="16" height="16"/>
	</g>
</g>
<g>
	<g>
		<rect x="416" y="304" class="st0" width="16" height="16"/>
	</g>
</g>
<g>
	<g>
		<rect x="48" y="256" class="st0" width="16" height="16"/>
	</g>
</g>
<g>
	<g>
		<rect x="48" y="288" class="st0" width="16" height="16"/>
	</g>
</g>
<g>
	<g>
		<rect x="48" y="320" class="st0" width="16" height="16"/>
	</g>
</g>
<g>
	<g>
		<rect x="48" y="352" class="st0" width="16" height="16"/>
	</g>
</g>
<g>
	<g>
		<rect x="48" y="384" class="st0" width="16" height="16"/>
	</g>
</g>
<g>
	<g>
		<rect x="48" y="416" class="st0" width="16" height="16"/>
	</g>
</g>
<g>
	<g>
		<rect x="80" y="416" class="st0" width="16" height="16"/>
	</g>
</g>
<g>
	<g>
		<rect x="112" y="416" class="st0" width="16" height="16"/>
	</g>
</g>
<g>
	<g>
		<rect x="144" y="416" class="st0" width="16" height="16"/>
	</g>
</g>
</svg>
