<?xml version="1.0" encoding="utf-8"?>
<!-- Generator: Adobe Illustrator 23.0.3, SVG Export Plug-In . SVG Version: 6.00 Build 0)  -->
<svg version="1.1" id="Layer_1" xmlns="http://www.w3.org/2000/svg" xmlns:xlink="http://www.w3.org/1999/xlink" x="0px" y="0px"
	 viewBox="0 0 493 493" style="enable-background:new 0 0 493 493;" xml:space="preserve">
<style type="text/css">
	.st0{fill:#FF7824;}
</style>
<path class="st0" d="M361.1,309.5h-24.5c-3.9,0-7,3.1-7,7c0,3.9,3.1,7,7,7h24.5c3.9,0,7-3.1,7-7
	C368.1,312.6,364.9,309.5,361.1,309.5z"/>
<path class="st0" d="M361.1,353.5h-24.5c-3.9,0-7,3.1-7,7c0,3.9,3.1,7,7,7h24.5c3.9,0,7-3.1,7-7
	C368.1,356.6,364.9,353.5,361.1,353.5z"/>
<path class="st0" d="M361.1,396.5h-24.5c-3.9,0-7,3.1-7,7s3.1,7,7,7h24.5c3.9,0,7-3.1,7-7S364.9,396.5,361.1,396.5z"/>
<path class="st0" d="M270.5,250.4c3.9,0,7-3.1,7-7v-28c0-3.9-3.1-7-7-7c-3.9,0-7,3.1-7,7v28C263.5,247.3,266.6,250.4,270.5,250.4z"
	/>
<path class="st0" d="M226.5,250.4c3.9,0,7-3.1,7-7v-28c0-3.9-3.1-7-7-7c-3.9,0-7,3.1-7,7v28C219.5,247.3,222.6,250.4,226.5,250.4z"
	/>
<path class="st0" d="M182.5,250.4c3.9,0,7-3.1,7-7v-28c0-3.9-3.1-7-7-7c-3.9,0-7,3.1-7,7v28C175.5,247.3,178.6,250.4,182.5,250.4z"
	/>
<path class="st0" d="M361.1,265.5h-24.5c-3.9,0-7,3.1-7,7c0,3.9,3.1,7,7,7h24.5c3.9,0,7-3.1,7-7
	C368.1,268.6,364.9,265.5,361.1,265.5z"/>
<path class="st0" d="M410.6,309.5h-24.5c-3.9,0-7,3.1-7,7c0,3.9,3.1,7,7,7h24.5c3.9,0,7-3.1,7-7
	C417.6,312.6,414.4,309.5,410.6,309.5z"/>
<path class="st0" d="M410.6,353.5h-24.5c-3.9,0-7,3.1-7,7c0,3.9,3.1,7,7,7h24.5c3.9,0,7-3.1,7-7
	C417.6,356.6,414.4,353.5,410.6,353.5z"/>
<path class="st0" d="M410.6,396.5h-24.5c-3.9,0-7,3.1-7,7s3.1,7,7,7h24.5c3.9,0,7-3.1,7-7S414.4,396.5,410.6,396.5z"/>
<path class="st0" d="M386.1,279.5h24.5c3.9,0,7-3.1,7-7c0-3.9-3.1-7-7-7h-24.5c-3.9,0-7,3.1-7,7
	C379.1,276.4,382.2,279.5,386.1,279.5z"/>
<path class="st0" d="M226.5,176.4c3.9,0,7-3.1,7-7v-28c0-3.9-3.1-7-7-7c-3.9,0-7,3.1-7,7v28C219.5,173.3,222.6,176.4,226.5,176.4z"
	/>
<path class="st0" d="M182.5,176.4c3.9,0,7-3.1,7-7v-28c0-3.9-3.1-7-7-7c-3.9,0-7,3.1-7,7v28C175.5,173.3,178.6,176.4,182.5,176.4z"
	/>
<path class="st0" d="M270.5,324.4c3.9,0,7-3.1,7-7v-28c0-3.9-3.1-7-7-7c-3.9,0-7,3.1-7,7v28C263.5,321.3,266.6,324.4,270.5,324.4z"
	/>
<path class="st0" d="M226.5,324.4c3.9,0,7-3.1,7-7v-28c0-3.9-3.1-7-7-7c-3.9,0-7,3.1-7,7v28C219.5,321.3,222.6,324.4,226.5,324.4z"
	/>
<path class="st0" d="M182.5,324.4c3.9,0,7-3.1,7-7v-28c0-3.9-3.1-7-7-7c-3.9,0-7,3.1-7,7v28C175.5,321.3,178.6,324.4,182.5,324.4z"
	/>
<path class="st0" d="M270.5,398.4c3.9,0,7-3.1,7-7v-28c0-3.9-3.1-7-7-7c-3.9,0-7,3.1-7,7v28C263.5,395.2,266.6,398.4,270.5,398.4z"
	/>
<path class="st0" d="M226.5,398.4c3.9,0,7-3.1,7-7v-28c0-3.9-3.1-7-7-7c-3.9,0-7,3.1-7,7v28C219.5,395.2,222.6,398.4,226.5,398.4z"
	/>
<path class="st0" d="M182.5,398.4c3.9,0,7-3.1,7-7v-28c0-3.9-3.1-7-7-7c-3.9,0-7,3.1-7,7v28C175.5,395.2,178.6,398.4,182.5,398.4z"
	/>
<path class="st0" d="M379.2,28c-28.7,0-56.3,10.9-77.2,30.5H142.3c-1.8-0.1-3.5,0.6-4.8,1.8s-2,3-2,4.8v144.4H61
	c-4,0.1-7.3,3.3-7.5,7.3v53.7H7c-3.9,0-6.5,3.2-6.5,7v46.7c-1,0.5-0.1,0.9-0.1,1.4c0,0.5-0.9,0.9,0.1,1.4v40.9
	c-1,0.5-0.1,0.9-0.1,1.4c0,0.5-0.9,1,0.1,1.4v40.9c-1,0.5-0.1,0.9-0.1,1.4c0,0.5-0.9,0.9,0.1,1.4v43.7c0,3.9,2.7,7.3,6.5,7.3h424.6
	c3.9-0.2,6.9-3.4,6.9-7.3V238.7c43.5-26.5,64.1-78.8,50.3-127.8C475,61.8,430.2,28,379.2,28z M149.5,72.5h139.7
	c-14.3,18.4-22.6,40.8-23.6,64.1c-1.4,1.2-2.1,3-2.1,4.8v28c0,1.9,0.7,3.6,2,4.9c1.3,1.3,3.1,2.1,4.9,2.1c0.1,0,0.2,0,0.3,0
	c6.5,20.3,18.6,38.3,34.8,52.1v223h-156V72.5z M135.5,362.5h-121v-30h121V362.5z M14.5,376.5h121v30h-121V376.5z M61,284.5
	c3.9,0,6.5-3.1,6.5-7v-54h68v95h-121v-34H61z M14.5,420.5h121v31h-121V420.5z M424.5,451.5h-105V238.7c18,10.6,37.8,16.8,59.5,16.8
	c15.6,0,31.1-3.2,45.5-9.4V451.5z M379.2,241.5c-55.1,0-99.8-44.7-99.8-99.8c0-55.1,44.7-99.8,99.8-99.8c55.1,0,99.8,44.7,99.8,99.8
	C479,196.7,434.4,241.4,379.2,241.5z"/>
<path class="st0" d="M379.5,95.3c-3.9,0-7,3.1-7,7v46.6c0,3.9,3.1,7,7,7c3.9,0,7-3.1,7-7v-46.6C386.5,98.5,383.3,95.3,379.5,95.3z"
	/>
<path class="st0" d="M379.5,167.3c-3.9,0-7,3.1-7,7v6.6c0,3.9,3.1,7,7,7c3.9,0,7-3.1,7-7v-6.6C386.5,170.5,383.3,167.3,379.5,167.3z
	"/>
</svg>
