<?xml version="1.0" encoding="utf-8"?>
<!-- Generator: Adobe Illustrator 23.0.3, SVG Export Plug-In . SVG Version: 6.00 Build 0)  -->
<svg version="1.1" id="Layer_1" xmlns="http://www.w3.org/2000/svg" xmlns:xlink="http://www.w3.org/1999/xlink" x="0px" y="0px"
	 viewBox="0 0 512 512" style="enable-background:new 0 0 512 512;" xml:space="preserve">
<style type="text/css">
	.st0{fill:#FF7824;}
</style>
<g>
	<g>
		<path class="st0" d="M344.1,104.9c-56.8,0-107,28.3-137.4,71.6c-21.6-13.9-46.5-21.2-72.5-21.2C60.2,155.3,0,215.5,0,289.6
			C0,337.4,25.8,382,67.2,406c1.3,0.7,2.7,1.1,4.2,1.1h125.7c1.5,0,2.9-0.4,4.2-1.1c8-4.6,15.5-10,22.4-16.2
			c5.4,5.5,11.2,10.7,17.4,15.5c1.5,1.1,3.3,1.8,5.2,1.8H442c1.9,0,3.7-0.6,5.2-1.8c41.2-32.1,64.8-80.4,64.8-132.5
			C512,180.2,436.7,104.9,344.1,104.9z M194.9,390.3h-52.2v-25.2c0-4.6-3.8-8.4-8.4-8.4c-4.6,0-8.4,3.8-8.4,8.4v25.2H73.7
			c-9.1-5.5-17.3-12.1-24.4-19.6l20.4-20.4c3.3-3.3,3.3-8.6,0-11.9c-3.3-3.3-8.6-3.3-11.9,0l-19.3,19.3
			c-13.9-19.6-21.8-43.3-21.8-68.1H42c4.6,0,8.4-3.8,8.4-8.4s-3.8-8.4-8.4-8.4H18c3.6-24.8,14.9-47.2,31.5-64.5L66.2,225
			c1.6,1.6,3.8,2.5,5.9,2.5c2.1,0,4.3-0.8,5.9-2.5c3.3-3.3,3.3-8.6,0-11.9L62,197c17.9-14,39.9-22.9,63.9-24.6v24.8
			c0,4.6,3.8,8.4,8.4,8.4c4.6,0,8.4-3.8,8.4-8.4v-24.9c19.7,1.4,38.5,7.6,55.1,18.3c-13.7,24.3-21.5,52.3-21.5,82.1
			c0,38.6,12.9,75,36.3,104.4C207.1,382.1,201.2,386.5,194.9,390.3z M456.8,373.5l-23.6-23.6c-3.3-3.3-8.6-3.3-11.9,0
			c-3.3,3.3-3.3,8.6,0,11.9l23.6,23.6c-1.9,1.7-3.8,3.3-5.8,4.9h-86.6v-25.2c0-4.6-3.8-8.4-8.4-8.4s-8.4,3.8-8.4,8.4v25.2h-86.6
			c-2-1.6-3.9-3.2-5.8-4.9l23.6-23.6c3.3-3.3,3.3-8.6,0-11.9c-3.3-3.3-8.6-3.3-11.9,0l-23.6,23.6c-0.1-0.2-0.3-0.3-0.4-0.5
			c-0.3-0.5-0.7-0.9-1.1-1.3c-0.1-0.1-0.1-0.1-0.2-0.1c-21.8-25.1-34.7-56.7-36.6-90.5h33.3c4.6,0,8.4-3.8,8.4-8.4s-3.8-8.4-8.4-8.4
			h-33.3c1.9-35.3,16.1-67.5,38.3-92.3l23.5,23.5c1.6,1.6,3.8,2.5,5.9,2.5c2.1,0,4.3-0.8,5.9-2.5c3.3-3.3,3.3-8.6,0-11.9l-23.5-23.5
			c24.8-22.2,56.9-36.4,92.3-38.3v33.3c0,4.6,3.8,8.4,8.4,8.4s8.4-3.8,8.4-8.4v-33.3c35.3,1.9,67.5,16.1,92.3,38.3l-23.5,23.5
			c-3.3,3.3-3.3,8.6,0,11.9c1.6,1.6,3.8,2.5,5.9,2.5s4.3-0.8,5.9-2.5l23.5-23.5c22.2,24.8,36.4,56.9,38.3,92.3h-33.3
			c-4.6,0-8.4,3.8-8.4,8.4s3.8,8.4,8.4,8.4H495C493.1,315.8,479.6,348.1,456.8,373.5z"/>
	</g>
</g>
<g>
	<g>
		<path class="st0" d="M391.1,221.6c-2.3-2.3-5.7-3.1-8.8-2c-9.6,3.4-57.8,21-68.4,31.6c-6.3,6.3-9.8,14.8-9.8,23.7
			c0,9,3.5,17.4,9.8,23.7h0c6.3,6.3,14.8,9.8,23.7,9.8s17.4-3.5,23.7-9.8c10.6-10.6,28.2-58.8,31.6-68.4
			C394.2,227.3,393.4,223.9,391.1,221.6z M349.6,286.9c-3.2,3.2-7.4,4.9-11.9,4.9c-4.5,0-8.7-1.7-11.9-4.9h0
			c-3.2-3.2-4.9-7.4-4.9-11.9c0-4.5,1.7-8.7,4.9-11.9c4.5-4.5,25.4-13.6,45-21.3C363.2,261.5,354,282.4,349.6,286.9z"/>
	</g>
</g>
<g>
	<g>
		<path class="st0" d="M150.8,268.1c-7.9-7.9-41-20.2-51-23.7c-3.1-1.1-6.5-0.3-8.8,2c-2.3,2.3-3.1,5.7-2,8.8
			c3.6,10,15.8,43.1,23.7,51c5.1,5.1,11.8,7.9,19,7.9c7.2,0,13.9-2.8,19-7.9c5.1-5.1,7.9-11.8,7.9-19
			C158.7,279.9,155.9,273.2,150.8,268.1z M138.9,294.2L138.9,294.2c-1.9,1.9-4.4,3-7.1,3s-5.2-1-7.1-3c-2.5-2.5-7.9-14.2-13.2-27.4
			c13.3,5.3,25,10.7,27.4,13.2c1.9,1.9,2.9,4.4,2.9,7.1C141.9,289.8,140.8,292.3,138.9,294.2z"/>
	</g>
</g>
</svg>
