<svg id="Capa_1" data-name="Capa 1" xmlns="http://www.w3.org/2000/svg" viewBox="0 0 45.96 45.96"><defs><style>.cls-1{fill:#fff;}.cls-2{fill:#9fdf16;}</style></defs><title>dollar-symbol-circle</title><rect class="cls-1" x="12.24" y="7.76" width="20" height="30.59"/><path class="cls-2" d="M23,0A23,23,0,1,0,46,23,23,23,0,0,0,23,0Zm1.39,33.22v2.66a.71.71,0,0,1-.74.71H21.86a.72.72,0,0,1-.75-.71V33.45a15,15,0,0,1-4.53-.9,1.42,1.42,0,0,1-.87-1.68L16,29.75a1.37,1.37,0,0,1,.73-.91,1.38,1.38,0,0,1,1.16-.06,11.63,11.63,0,0,0,4.09.79c1.9,0,3.21-.74,3.21-2.08s-1.07-2.07-3.55-2.91c-3.58-1.2-6-2.87-6-6.12,0-2.94,2.08-5.25,5.65-6V10.08A.79.79,0,0,1,22,9.3H23.8a.75.75,0,0,1,.72.78v2.19a13.11,13.11,0,0,1,3.62.61,1.43,1.43,0,0,1,.95,1.7l-.26,1a1.44,1.44,0,0,1-.7.9,1.4,1.4,0,0,1-1.13.09A10.36,10.36,0,0,0,23.62,16c-2.18,0-2.88.94-2.88,1.88,0,1.1,1.17,1.8,4,2.87,4,1.41,5.58,3.25,5.58,6.26S28.23,32.55,24.37,33.22Z"/></svg>