<svg xmlns="http://www.w3.org/2000/svg" width="17.5" height="18.564" viewBox="0 0 17.5 18.564">
  <g id="arroba-symbol" transform="translate(-8.282)">
    <g id="Group_134" data-name="Group 134" transform="translate(8.282)">
      <path id="Path_189" data-name="Path 189" d="M21.112,17.5a9.722,9.722,0,0,1-4.748,1.067,7.938,7.938,0,0,1-8.082-8.321C8.282,4.748,12.1,0,18.019,0a7.408,7.408,0,0,1,7.763,7.708c0,4-2.241,6.349-4.748,6.349a1.974,1.974,0,0,1-1.974-2.348h-.107a4.191,4.191,0,0,1-3.762,2.348c-1.546,0-2.88-1.255-2.88-3.362a6.3,6.3,0,0,1,6.32-6.32,7,7,0,0,1,2.854.56L20.58,9.761c-.4,2.029-.081,2.963.8,2.988,1.361.026,2.882-1.788,2.882-4.883C24.261,4,21.94,1.225,17.8,1.225c-4.346,0-8,3.443-8,8.858,0,4.455,2.908,7.2,6.855,7.2a8.335,8.335,0,0,0,4.029-.934ZM19.646,5.973a4.7,4.7,0,0,0-1.334-.185c-2.348,0-4.242,2.213-4.242,4.8,0,1.175.587,2.029,1.761,2.029,1.546,0,2.96-1.974,3.254-3.63Z" transform="translate(-8.282)" fill="#030303"/>
    </g>
  </g>
</svg>
