<?xml version="1.0" encoding="utf-8"?>
<!-- Generator: Adobe Illustrator 23.0.3, SVG Export Plug-In . SVG Version: 6.00 Build 0)  -->
<svg version="1.1" id="Capa_1" xmlns="http://www.w3.org/2000/svg" xmlns:xlink="http://www.w3.org/1999/xlink" x="0px" y="0px"
	 viewBox="0 0 512 512" style="enable-background:new 0 0 512 512;" xml:space="preserve">
<style type="text/css">
	.st0{fill:#FF7824;}
</style>
<g>
	<g>
		<path class="st0" d="M373.3,96h-26.9c-1.1-3.2-2.4-6.3-3.9-9.3l19-19c4.2-4.2,4.2-10.9,0-15.1l-30.2-30.2
			c-4.2-4.2-10.9-4.2-15.1,0l-19,19c-3-1.4-6.1-2.7-9.3-3.9V10.7C288,4.8,283.2,0,277.3,0h-42.7C228.8,0,224,4.8,224,10.7v26.9
			c-3.2,1.1-6.3,2.4-9.3,3.9l-19-19c-4.2-4.2-10.9-4.2-15.1,0l-30.2,30.2c-4.2,4.2-4.2,10.9,0,15.1l19,19c-1.4,3-2.7,6.1-3.9,9.3
			h-26.9c-5.9,0-10.7,4.8-10.7,10.7v42.7c0,5.9,4.8,10.7,10.7,10.7h26.9c1.1,3.2,2.4,6.3,3.9,9.3l-19,19c-4.2,4.2-4.2,10.9,0,15.1
			l30.2,30.2c4.2,4.2,10.9,4.2,15.1,0l19-19c3,1.4,6.1,2.7,9.3,3.9v26.9c0,5.9,4.8,10.7,10.7,10.7h42.7c5.9,0,10.7-4.8,10.7-10.7
			v-26.9c3.2-1.1,6.3-2.4,9.3-3.9l19,19c4.2,4.2,10.9,4.2,15.1,0l30.2-30.2c4.2-4.2,4.2-10.9,0-15.1l-19-19c1.4-3,2.7-6.1,3.9-9.3
			h26.9c5.9,0,10.7-4.8,10.7-10.7v-42.7C384,100.8,379.2,96,373.3,96z M362.7,138.7h-24.1c-4.9,0-9.1,3.3-10.3,8
			c-1.7,6.7-4.4,13.2-7.9,19.2c-2.5,4.2-1.8,9.5,1.6,13l17.1,17.1L323.9,211l-17.1-17.1c-3.4-3.4-8.8-4.1-13-1.6
			c-6,3.5-12.5,6.2-19.2,7.9c-4.7,1.2-8,5.5-8,10.3v24.1h-21.3l0-24.1c0-4.9-3.3-9.1-8-10.3c-6.7-1.7-13.2-4.4-19.2-7.9
			c-4.2-2.5-9.5-1.8-13,1.6L188.1,211L173,195.9l17.1-17.1c3.4-3.4,4.1-8.8,1.6-13c-3.5-6-6.2-12.5-7.9-19.2c-1.2-4.7-5.5-8-10.3-8
			h-24.1v-21.3h24.1c4.9,0,9.1-3.3,10.3-8c1.7-6.7,4.4-13.2,7.9-19.2c2.5-4.2,1.8-9.5-1.6-13L173,60.1L188.1,45l17.1,17.1
			c3.4,3.4,8.8,4.1,13,1.6c6-3.5,12.5-6.2,19.2-7.9c4.7-1.2,8-5.5,8-10.3V21.3h21.3v24.1c0,4.9,3.3,9.1,8,10.3
			c6.7,1.7,13.2,4.4,19.2,7.9c4.2,2.5,9.5,1.8,13-1.6L323.9,45L339,60.1l-17.1,17.1c-3.4,3.4-4.1,8.8-1.6,13
			c3.5,6,6.2,12.5,7.9,19.2c1.2,4.7,5.5,8,10.3,8h24.1V138.7z"/>
	</g>
</g>
<g>
	<g>
		<path class="st0" d="M256,85.3c-23.6,0-42.7,19.1-42.7,42.7s19.1,42.7,42.7,42.7s42.7-19.1,42.7-42.7S279.6,85.3,256,85.3z
			 M256,149.3c-11.8,0-21.3-9.6-21.3-21.3s9.6-21.3,21.3-21.3s21.3,9.6,21.3,21.3S267.8,149.3,256,149.3z"/>
	</g>
</g>
<g>
	<g>
		<path class="st0" d="M181.3,266.7v21c0,35.5-19.1,64.3-42.7,64.3c-23.5,0-42.7-28.8-42.7-64.3v-19.5c5.3-19.4,22.6-33,42.7-33.5
			v-21.3c-30.3,0.5-56.4,21.3-63.7,50.7c-0.2,0.8-0.3,1.7-0.3,2.6v21c0,48,28.1,85.6,64,85.6s64-37.6,64-85.6v-21L181.3,266.7
			L181.3,266.7z"/>
	</g>
</g>
<g>
	<g>
		<path class="st0" d="M192,373.3c-0.9,0.1-1.7,0.1-2.6,0c-11.1-0.7-19.5-10.3-18.8-21.3h-21.3c0,0.8,0,1.6,0,2.4
			c0.7,22.9,19.8,40.9,42.7,40.2c17.7,0,32,14.3,32,32V512h21.3v-85.3C245.3,397.2,221.4,373.4,192,373.3z"/>
	</g>
</g>
<g>
	<g>
		<path class="st0" d="M128,352h-21.3c0.1,0.9,0.1,1.7,0,2.6c-0.7,11.1-10.3,19.5-21.3,18.8c-29.4,0-53.3,23.9-53.3,53.3V512h21.3
			v-85.3c0-17.7,14.3-32,32-32c0.8,0,1.6,0,2.4,0C110.7,394,128.7,374.9,128,352z"/>
	</g>
</g>
<g>
	<g>
		<rect x="74.7" y="437.3" class="st0" width="21.3" height="74.7"/>
	</g>
</g>
<g>
	<g>
		<rect x="181.3" y="437.3" class="st0" width="21.3" height="74.7"/>
	</g>
</g>
<g>
	<g>
		<path class="st0" d="M437,264.1c-7.2-29.4-33.4-50.2-63.7-50.7v21.3c20,0.5,37.4,14.1,42.7,33.5v19.5c0,35.5-19.1,64.3-42.7,64.3
			s-42.7-28.8-42.7-64.3v-21h-21.3v21c0,48,28.1,85.6,64,85.6s64-37.6,64-85.6v-21C437.3,265.8,437.2,264.9,437,264.1z"/>
	</g>
</g>
<g>
	<g>
		<path class="st0" d="M426.7,373.3c-0.9,0.1-1.7,0.1-2.6,0c-11.1-0.7-19.5-10.3-18.8-21.3H384c0,0.8,0,1.6,0,2.4
			c0.7,22.9,19.8,40.9,42.7,40.2c17.7,0,32,14.3,32,32V512H480v-85.3C480,397.2,456.1,373.4,426.7,373.3z"/>
	</g>
</g>
<g>
	<g>
		<path class="st0" d="M362.7,352h-21.3c0.1,0.9,0.1,1.7,0,2.6c-0.7,11.1-10.3,19.5-21.3,18.8c-29.4,0-53.3,23.9-53.3,53.3V512H288
			v-85.3c0-17.7,14.3-32,32-32c0.8,0,1.6,0,2.4,0C345.3,394,363.3,374.9,362.7,352z"/>
	</g>
</g>
<g>
	<g>
		<rect x="309.3" y="437.3" class="st0" width="21.3" height="74.7"/>
	</g>
</g>
<g>
	<g>
		<rect x="416" y="437.3" class="st0" width="21.3" height="74.7"/>
	</g>
</g>
<g>
	<g>
		<rect x="245.3" y="277.3" class="st0" width="21.3" height="21.3"/>
	</g>
</g>
<g>
	<g>
		<rect x="245.3" y="320" class="st0" width="21.3" height="21.3"/>
	</g>
</g>
<g>
	<g>
		<rect x="245.3" y="362.7" class="st0" width="21.3" height="21.3"/>
	</g>
</g>
</svg>
