<svg xmlns="http://www.w3.org/2000/svg" xmlns:xlink="http://www.w3.org/1999/xlink" viewBox="0 0 402.38 344.44"><defs><style>.cls-1{fill:none;}.cls-2{isolation:isolate;}.cls-3{fill:url(#Áåçûìÿííûé_ãðàäèåíò_254);}.cls-4{fill:url(#Áåçûìÿííûé_ãðàäèåíò_254-2);}.cls-5{fill:url(#Áåçûìÿííûé_ãðàäèåíò_3);}.cls-6{fill:url(#Áåçûìÿííûé_ãðàäèåíò_254-3);}.cls-7{fill:url(#Áåçûìÿííûé_ãðàäèåíò_3-2);}.cls-8{fill:url(#Áåçûìÿííûé_ãðàäèåíò_24);}.cls-9{fill:#24126a;}.cls-10{opacity:0.51;}.cls-11{fill:#453c9e;}.cls-12{fill:url(#Áåçûìÿííûé_ãðàäèåíò_24-2);}.cls-13{fill:url(#Áåçûìÿííûé_ãðàäèåíò_3-3);}.cls-14,.cls-52{fill:#fff;}.cls-15{fill:#2842a2;}.cls-16{fill:#adb1f2;}.cls-17{fill:#9198db;}.cls-18{fill:url(#Áåçûìÿííûé_ãðàäèåíò_3-4);}.cls-19{opacity:0.11;}.cls-20{clip-path:url(#clip-path);}.cls-21{fill:url(#Áåçûìÿííûé_ãðàäèåíò_3-5);}.cls-22{fill:url(#Áåçûìÿííûé_ãðàäèåíò_3-6);}.cls-23{fill:#42e8e0;}.cls-24{fill:url(#Áåçûìÿííûé_ãðàäèåíò_254-4);}.cls-25{fill:url(#Áåçûìÿííûé_ãðàäèåíò_24-3);}.cls-26{fill:url(#Áåçûìÿííûé_ãðàäèåíò_25);}.cls-27{fill:url(#Áåçûìÿííûé_ãðàäèåíò_24-4);}.cls-28{fill:url(#Áåçûìÿííûé_ãðàäèåíò_3-7);}.cls-29{fill:url(#Áåçûìÿííûé_ãðàäèåíò_22);}.cls-30{fill:url(#Áåçûìÿííûé_ãðàäèåíò_254-5);}.cls-31{fill:url(#Áåçûìÿííûé_ãðàäèåíò_254-6);}.cls-32{fill:url(#Áåçûìÿííûé_ãðàäèåíò_254-7);}.cls-33{fill:#160a5b;}.cls-34{fill:url(#Áåçûìÿííûé_ãðàäèåíò_22-2);}.cls-35{fill:url(#Áåçûìÿííûé_ãðàäèåíò_22-3);}.cls-36{fill:#f0f6ff;}.cls-37{fill:#fcd1c5;}.cls-38,.cls-47,.cls-48{fill:#4846a5;}.cls-39{fill:#aa8383;}.cls-40{fill:#c4ccd6;}.cls-41{fill:#e2b1a6;}.cls-42{fill:url(#Áåçûìÿííûé_ãðàäèåíò_22-4);}.cls-43{fill:#936d6d;}.cls-44{fill:url(#Áåçûìÿííûé_ãðàäèåíò_24-5);}.cls-45{fill:url(#Áåçûìÿííûé_ãðàäèåíò_3-8);}.cls-46{fill:#5761d7;}.cls-47{opacity:0.3;}.cls-47,.cls-48{mix-blend-mode:lighten;}.cls-48{opacity:0.1;}.cls-49{fill:url(#Áåçûìÿííûé_ãðàäèåíò_254-8);}.cls-50{fill:url(#Áåçûìÿííûé_ãðàäèåíò_2);}.cls-51{fill:url(#Áåçûìÿííûé_ãðàäèåíò_3-10);}.cls-52,.cls-54,.cls-55,.cls-56,.cls-57,.cls-58,.cls-59{opacity:0.5;}.cls-53{fill:#0f054c;}.cls-54{fill:url(#Áåçûìÿííûé_ãðàäèåíò_254-9);}.cls-55{fill:url(#Áåçûìÿííûé_ãðàäèåíò_254-10);}.cls-56{fill:url(#Áåçûìÿííûé_ãðàäèåíò_254-11);}.cls-57{fill:url(#Áåçûìÿííûé_ãðàäèåíò_254-12);}.cls-58{fill:url(#Áåçûìÿííûé_ãðàäèåíò_254-13);}.cls-59{fill:url(#Áåçûìÿííûé_ãðàäèåíò_254-14);}</style><linearGradient id="Áåçûìÿííûé_ãðàäèåíò_254" x1="-852.43" y1="259.1" x2="-801.37" y2="259.1" gradientTransform="matrix(0.87, 0.5, -1, 0.58, 1109.22, 394.06)" gradientUnits="userSpaceOnUse"><stop offset="0" stop-color="#42e8e0"/><stop offset="0.15" stop-color="#43e3e0"/><stop offset="0.33" stop-color="#45d5df"/><stop offset="0.52" stop-color="#49bddd"/><stop offset="0.72" stop-color="#4e9cdb"/><stop offset="0.93" stop-color="#5472d8"/><stop offset="1" stop-color="#5761d7"/></linearGradient><linearGradient id="Áåçûìÿííûé_ãðàäèåíò_254-2" x1="301.39" y1="2035.5" x2="376.72" y2="2035.5" gradientTransform="matrix(1, 0, 0, -1, -298.1, 2193.95)" xlink:href="#Áåçûìÿííûé_ãðàäèåíò_254"/><linearGradient id="Áåçûìÿííûé_ãðàäèåíò_3" x1="426.43" y1="407.39" x2="426.43" y2="359.74" gradientTransform="matrix(-0.87, -0.5, 0, 1.15, 576.22, -162.44)" gradientUnits="userSpaceOnUse"><stop offset="0" stop-color="#c0bff6"/><stop offset="0.29" stop-color="#c5c4f7"/><stop offset="0.64" stop-color="#d3d2f9"/><stop offset="1" stop-color="#e9e9fd"/></linearGradient><linearGradient id="Áåçûìÿííûé_ãðàäèåíò_254-3" x1="239.47" y1="192.06" x2="437.84" y2="192.06" gradientTransform="matrix(-1, 0, 0, 1, 557.67, 0)" xlink:href="#Áåçûìÿííûé_ãðàäèåíò_254"/><linearGradient id="Áåçûìÿííûé_ãðàäèåíò_3-2" x1="213.08" y1="96.85" x2="363.45" y2="96.85" gradientTransform="matrix(-1, 0, 0, 1, 557.67, 0)" xlink:href="#Áåçûìÿííûé_ãðàäèåíò_3"/><linearGradient id="Áåçûìÿííûé_ãðàäèåíò_24" x1="213.08" y1="135.41" x2="238.9" y2="135.41" gradientTransform="matrix(-1, 0, 0, 1, 557.67, 0)" gradientUnits="userSpaceOnUse"><stop offset="0" stop-color="#5761d7"/><stop offset="0.18" stop-color="#5c66d9"/><stop offset="0.39" stop-color="#6a73df"/><stop offset="0.61" stop-color="#8289e8"/><stop offset="0.85" stop-color="#a3a7f5"/><stop offset="1" stop-color="#bcbeff"/></linearGradient><linearGradient id="Áåçûìÿííûé_ãðàäèåíò_24-2" x1="233.23" y1="178.76" x2="445.59" y2="178.76" xlink:href="#Áåçûìÿííûé_ãðàäèåíò_24"/><linearGradient id="Áåçûìÿííûé_ãðàäèåíò_3-3" x1="304.58" y1="171.67" x2="517.06" y2="171.67" gradientTransform="matrix(-1, 0, 0, 1, 557.67, 0)" xlink:href="#Áåçûìÿííûé_ãðàäèåíò_3"/><linearGradient id="Áåçûìÿííûé_ãðàäèåíò_3-4" x1="340.57" y1="183.74" x2="394.95" y2="183.74" gradientTransform="matrix(-1, 0, 0, 1, 557.67, 0)" xlink:href="#Áåçûìÿííûé_ãðàäèåíò_3"/><clipPath id="clip-path" transform="translate(-3.28 -7.73)"><polygon id="SVGID" class="cls-1" points="212.37 15.4 337.83 87.83 322.27 179.56 196.89 107.17 212.37 15.4"/></clipPath><linearGradient id="Áåçûìÿííûé_ãðàäèåíò_3-5" x1="223.4" y1="124.58" x2="435.88" y2="124.58" gradientTransform="matrix(-1, 0, 0, 1, 557.67, 0)" xlink:href="#Áåçûìÿííûé_ãðàäèåíò_3"/><linearGradient id="Áåçûìÿííûé_ãðàäèåíò_3-6" x1="209.42" y1="108.98" x2="263.81" y2="108.98" gradientTransform="matrix(-1, 0, 0, 1, 557.67, 0)" xlink:href="#Áåçûìÿííûé_ãðàäèåíò_3"/><linearGradient id="Áåçûìÿííûé_ãðàäèåíò_254-4" x1="364.15" y1="228.94" x2="493.81" y2="228.94" gradientTransform="matrix(-1, 0, 0, 1, 557.67, 0)" xlink:href="#Áåçûìÿííûé_ãðàäèåíò_254"/><linearGradient id="Áåçûìÿííûé_ãðàäèåíò_24-3" x1="273.47" y1="-0.25" x2="394.11" y2="-0.25" gradientTransform="matrix(-0.87, -0.5, 0, 1.15, 430.47, 356.15)" xlink:href="#Áåçûìÿííûé_ãðàäèåíò_24"/><radialGradient id="Áåçûìÿííûé_ãðàäèåíò_25" cx="388.58" cy="187.77" fx="341.5825851697498" fy="171.19321903856095" r="49.84" gradientTransform="matrix(-1, 0, 0, 1, 557.67, 0)" gradientUnits="userSpaceOnUse"><stop offset="0" stop-color="#2b237c"/><stop offset="1" stop-color="#180d5b"/></radialGradient><linearGradient id="Áåçûìÿííûé_ãðàäèåíò_24-4" x1="364.03" y1="203.43" x2="484.11" y2="203.43" xlink:href="#Áåçûìÿííûé_ãðàäèåíò_24"/><linearGradient id="Áåçûìÿííûé_ãðàäèåíò_3-7" x1="296.85" y1="20.06" x2="417.49" y2="20.06" gradientTransform="matrix(-0.87, -0.5, 0, 1.15, 430.47, 356.15)" xlink:href="#Áåçûìÿííûé_ãðàäèåíò_3"/><linearGradient id="Áåçûìÿííûé_ãðàäèåíò_22" x1="326.13" y1="274.1" x2="377.54" y2="274.1" gradientTransform="matrix(-1, 0, 0, 1, 554.39, -7.73)" gradientUnits="userSpaceOnUse"><stop offset="0" stop-color="#5761d7"/><stop offset="0.07" stop-color="#5472d8"/><stop offset="0.28" stop-color="#4e9cdb"/><stop offset="0.48" stop-color="#49bddd"/><stop offset="0.67" stop-color="#45d5df"/><stop offset="0.85" stop-color="#43e3e0"/><stop offset="1" stop-color="#42e8e0"/></linearGradient><linearGradient id="Áåçûìÿííûé_ãðàäèåíò_254-5" x1="209.28" y1="256.58" x2="274.95" y2="256.58" gradientTransform="matrix(-1, 0, 0, 1, 557.67, 0)" xlink:href="#Áåçûìÿííûé_ãðàäèåíò_254"/><linearGradient id="Áåçûìÿííûé_ãðàäèåíò_254-6" x1="194.71" y1="309.2" x2="342.09" y2="309.2" gradientTransform="matrix(1, 0, 0, 1, 0, 0)" xlink:href="#Áåçûìÿííûé_ãðàäèåíò_254"/><linearGradient id="Áåçûìÿííûé_ãðàäèåíò_254-7" x1="275.72" y1="330.89" x2="302.82" y2="287.51" gradientTransform="matrix(-1, 0, 0, 1, 554.39, -7.73)" xlink:href="#Áåçûìÿííûé_ãðàäèåíò_254"/><linearGradient id="Áåçûìÿííûé_ãðàäèåíò_22-2" x1="651" y1="267.4" x2="664.93" y2="267.4" gradientTransform="translate(-385.91 -85) rotate(4.74)" xlink:href="#Áåçûìÿííûé_ãðàäèåíò_22"/><linearGradient id="Áåçûìÿííûé_ãðàäèåíò_22-3" x1="670.69" y1="271.92" x2="699.83" y2="271.92" gradientTransform="translate(-385.91 -85) rotate(4.74)" xlink:href="#Áåçûìÿííûé_ãðàäèåíò_22"/><linearGradient id="Áåçûìÿííûé_ãðàäèåíò_22-4" x1="657.3" y1="234.97" x2="704.69" y2="234.97" gradientTransform="translate(-385.91 -85) rotate(4.74)" xlink:href="#Áåçûìÿííûé_ãðàäèåíò_22"/><linearGradient id="Áåçûìÿííûé_ãðàäèåíò_24-5" x1="315.34" y1="93.27" x2="394.07" y2="27.2" xlink:href="#Áåçûìÿííûé_ãðàäèåíò_24"/><linearGradient id="Áåçûìÿííûé_ãðàäèåíò_3-8" x1="313.75" y1="73.51" x2="322.35" y2="66.3" gradientTransform="matrix(-1, 0, 0, 1, 557.67, 0)" xlink:href="#Áåçûìÿííûé_ãðàäèåíò_3"/><linearGradient id="Áåçûìÿííûé_ãðàäèåíò_254-8" x1="47.97" y1="105.05" x2="135.1" y2="105.05" gradientTransform="matrix(1, 0, 0, 1, 0, 0)" xlink:href="#Áåçûìÿííûé_ãðàäèåíò_254"/><linearGradient id="Áåçûìÿííûé_ãðàäèåíò_2" x1="50.63" y1="95.65" x2="104.24" y2="95.65" gradientUnits="userSpaceOnUse"><stop offset="0.25" stop-color="#5761d7"/><stop offset="0.44" stop-color="#6c74df"/><stop offset="0.82" stop-color="#a2a6f5"/><stop offset="1" stop-color="#bcbeff"/></linearGradient><linearGradient id="Áåçûìÿííûé_ãðàäèåíò_3-10" x1="50.63" y1="80.99" x2="125.87" y2="80.99" gradientTransform="matrix(1, 0, 0, 1, 0, 0)" xlink:href="#Áåçûìÿííûé_ãðàäèåíò_3"/><linearGradient id="Áåçûìÿííûé_ãðàäèåíò_254-9" x1="64.99" y1="80.99" x2="111.51" y2="80.99" gradientTransform="matrix(1, 0, 0, 1, 0, 0)" xlink:href="#Áåçûìÿííûé_ãðàäèåíò_254"/><linearGradient id="Áåçûìÿííûé_ãðàäèåíò_254-10" x1="88.25" y1="64.89" x2="111.51" y2="64.89" gradientTransform="matrix(1, 0, 0, 1, 0, 0)" xlink:href="#Áåçûìÿííûé_ãðàäèåíò_254"/><linearGradient id="Áåçûìÿííûé_ãðàäèåíò_254-11" x1="64.99" y1="64.89" x2="88.25" y2="64.89" gradientTransform="matrix(1, 0, 0, 1, 0, 0)" xlink:href="#Áåçûìÿííûé_ãðàäèåíò_254"/><linearGradient id="Áåçûìÿííûé_ãðàäèåíò_254-12" x1="64.99" y1="62.21" x2="111.51" y2="62.21" gradientTransform="matrix(1, 0, 0, 1, 0, 0)" xlink:href="#Áåçûìÿííûé_ãðàäèåíò_254"/><linearGradient id="Áåçûìÿííûé_ãðàäèåíò_254-13" x1="88.25" y1="78.31" x2="111.51" y2="78.31" gradientTransform="matrix(1, 0, 0, 1, 0, 0)" xlink:href="#Áåçûìÿííûé_ãðàäèåíò_254"/><linearGradient id="Áåçûìÿííûé_ãðàäèåíò_254-14" x1="64.99" y1="78.31" x2="88.25" y2="78.31" gradientTransform="matrix(1, 0, 0, 1, 0, 0)" xlink:href="#Áåçûìÿííûé_ãðàäèåíò_254"/></defs><title>forgotpassword</title><g class="cls-2"><g id="Ñëîé_1" data-name="Ñëîé 1"><path class="cls-3" d="M155.2,143.37a1,1,0,0,1-.47-.12l-42.36-24.46a.93.93,0,1,1,.93-1.61l42.36,24.46a.92.92,0,0,1,.34,1.27A.91.91,0,0,1,155.2,143.37Z" transform="translate(-3.28 -7.73)"/><path class="cls-4" d="M77.62,199a1,1,0,0,1-.5-.14L3.78,156.21a1,1,0,0,1,0-1.73L71,118a1,1,0,0,1,1,1.75L6.31,155.38l71.81,41.79a1,1,0,0,1-.5,1.86Z" transform="translate(-3.28 -7.73)"/><path class="cls-5" d="M167.2,71.82l79.47,45.88c2.17,1.25,3.93-.08,3.93-3V70.19c0-2.9-1.76-6.26-3.93-7.52L167.2,16.79c-2.17-1.25-3.93.08-3.93,3V64.31C163.27,67.2,165,70.57,167.2,71.82Z" transform="translate(-3.28 -7.73)"/><path class="cls-6" d="M238.1,248.56,121.19,181.07a2.73,2.73,0,0,1,0-4.72l72.64-41.93.57-.33,122.44,70.69a2.72,2.72,0,0,1,0,4.71l-67.67,39.07a11.09,11.09,0,0,1-11.07,0ZM122.33,178.32a.45.45,0,0,0,0,.78l116.9,67.49a8.81,8.81,0,0,0,8.8,0l67.67-39.07a.44.44,0,0,0,0-.77l-121.3-70Z" transform="translate(-3.28 -7.73)"/><path class="cls-7" d="M194.25,106.2,210.54,9.57,209.23,9l2-1.13h0a1.44,1.44,0,0,1,1.52.11L342.87,83.16a3.67,3.67,0,0,1,1.69,3.3l-16.42,97.4a1.2,1.2,0,0,1-.68,1h0L325.53,186l-.33-1.8.11,0L195.94,109.5A3.66,3.66,0,0,1,194.25,106.2Z" transform="translate(-3.28 -7.73)"/><path class="cls-8" d="M342.14,85.8l2.14-1a3,3,0,0,1,.28,1.61l-16.42,97.4a1.2,1.2,0,0,1-.68,1h0L325.53,186l-.33-1.8.11,0-6.54-3.78Z" transform="translate(-3.28 -7.73)"/><path class="cls-9" d="M193.9,110.68l130.16,75.14c1,.59,1.87.25,2-.79l16.42-97.39a3.67,3.67,0,0,0-1.69-3.31L210.67,9.18c-1-.58-1.87-.25-2,.8l-16.41,97.39A3.67,3.67,0,0,0,193.9,110.68Z" transform="translate(-3.28 -7.73)"/><g class="cls-10"><polygon class="cls-11" points="209.08 7.67 334.55 80.11 318.99 171.83 193.61 99.44 209.08 7.67"/></g><path class="cls-12" d="M112.08,156.79l7.1,3.71,71.23-41.13a5.18,5.18,0,0,1,4.65.19l122.85,70.93c1.17-.66,6.53-3.23,6.53-3.23l-2.6,6.77h0a1.59,1.59,0,0,1-.73.81l-75,43.31a5.18,5.18,0,0,1-4.65-.19L115.73,165.37a2.24,2.24,0,0,1-1.06-1.12h0Z" transform="translate(-3.28 -7.73)"/><path class="cls-13" d="M113.18,158,242,232.34a5.34,5.34,0,0,0,4.77.2l76.88-44.39c1.22-.71,1.07-1.94-.34-2.75L194.48,111a5.32,5.32,0,0,0-4.76-.2L112.83,155.2C111.61,155.91,111.77,157.14,113.18,158Z" transform="translate(-3.28 -7.73)"/><path class="cls-14" d="M113.18,157.21,242,231.6a5.3,5.3,0,0,0,4.77.19l76.88-44.39a1.59,1.59,0,0,0,.75-.83,1.31,1.31,0,0,1-.75,1.58l-76.88,44.39a5.34,5.34,0,0,1-4.77-.2L113.18,158c-1-.54-1.32-1.28-1.09-1.92A2.24,2.24,0,0,0,113.18,157.21Z" transform="translate(-3.28 -7.73)"/><path class="cls-15" d="M280.88,216.25v-1.42c0-.13-.09-.19-.19-.13l-5,2.87a.45.45,0,0,0-.18.35v1.41c0,.14.08.2.18.14l5-2.87A.46.46,0,0,0,280.88,216.25Z" transform="translate(-3.28 -7.73)"/><path class="cls-15" d="M273.42,220.55v-1.41c0-.14-.08-.2-.18-.14l-5,2.88a.41.41,0,0,0-.18.34v1.42c0,.13.08.19.18.13l5-2.87A.45.45,0,0,0,273.42,220.55Z" transform="translate(-3.28 -7.73)"/><path class="cls-16" d="M303.62,184,196.55,122.18a2.26,2.26,0,0,0-2.3,0l-38.13,22.06a.82.82,0,0,0,0,1.42l107,61.78a2.26,2.26,0,0,0,2.3,0l38.18-22A.82.82,0,0,0,303.62,184Z" transform="translate(-3.28 -7.73)"/><path class="cls-17" d="M303.62,185.41l-.39.23L196.55,124a2.3,2.3,0,0,0-2.3,0L156.5,145.88l-.38-.22a.82.82,0,0,1,0-1.42l38.13-22.06a2.26,2.26,0,0,1,2.3,0L303.62,184A.82.82,0,0,1,303.62,185.41Z" transform="translate(-3.28 -7.73)"/><polygon class="cls-9" points="188.09 120.03 281.09 173.73 285.22 171.34 192.22 117.65 188.09 120.03"/><polygon class="cls-9" points="177.95 125.89 265.18 176.25 269.31 173.86 182.08 123.5 177.95 125.89"/><polygon class="cls-9" points="171.34 129.7 274.05 189 278.19 186.61 175.48 127.31 171.34 129.7"/><polygon class="cls-9" points="164.74 133.51 267.45 192.81 271.58 190.42 168.88 131.12 164.74 133.51"/><polygon class="cls-9" points="158.14 137.32 260.84 196.62 264.98 194.23 162.27 134.94 158.14 137.32"/><polygon class="cls-9" points="286.7 176.97 290.84 179.36 294.98 176.97 290.84 174.59 286.7 176.97"/><polygon class="cls-9" points="272.12 180.26 280.7 185.21 284.84 182.82 276.25 177.87 272.12 180.26"/><path class="cls-18" d="M192.43,199l-28.87-16.67a1.25,1.25,0,0,1,0-2.36l19.74-11.4a4.53,4.53,0,0,1,4.09,0l28.87,16.67a1.25,1.25,0,0,1,0,2.36L196.52,199A4.53,4.53,0,0,1,192.43,199Z" transform="translate(-3.28 -7.73)"/><path class="cls-17" d="M216.26,186.16l-28.87-16.67a4.53,4.53,0,0,0-4.09,0l-19.74,11.4a1.81,1.81,0,0,0-.71.69c-.3-.57-.07-1.21.71-1.66l19.74-11.4a4.53,4.53,0,0,1,4.09,0l28.87,16.67c.78.45,1,1.09.71,1.66A1.81,1.81,0,0,0,216.26,186.16Z" transform="translate(-3.28 -7.73)"/><g class="cls-19"><g class="cls-20"><path class="cls-21" d="M194.35,110.86l128.84,74.38a5.27,5.27,0,0,0,4.77.2l76.88-44.39c1.22-.7,1.07-1.93-.34-2.75L275.66,63.92a5.25,5.25,0,0,0-4.76-.2L194,108.11C192.79,108.81,192.94,110,194.35,110.86Z" transform="translate(-3.28 -7.73)"/><path class="cls-22" d="M323.58,124.19l-28.87-16.66a1.25,1.25,0,0,1,0-2.36l19.74-11.4a4.51,4.51,0,0,1,4.08,0l28.87,16.67a1.25,1.25,0,0,1,0,2.36l-19.74,11.39A4.45,4.45,0,0,1,323.58,124.19Z" transform="translate(-3.28 -7.73)"/><path class="cls-17" d="M347.4,111.4,318.53,94.74a4.45,4.45,0,0,0-4.08,0l-19.74,11.39a1.77,1.77,0,0,0-.71.7c-.3-.57-.07-1.21.71-1.66l19.74-11.4a4.51,4.51,0,0,1,4.08,0l28.87,16.67c.78.45,1,1.09.71,1.66A1.77,1.77,0,0,0,347.4,111.4Z" transform="translate(-3.28 -7.73)"/><path class="cls-16" d="M360.09,150.24,253,88.43a2.32,2.32,0,0,0-2.31,0L212.6,110.49a.82.82,0,0,0,0,1.42l107,61.79a2.32,2.32,0,0,0,2.31,0l38.17-22A.83.83,0,0,0,360.09,150.24Z" transform="translate(-3.28 -7.73)"/><path class="cls-17" d="M360.09,151.67l-.38.22L253,90.29a2.3,2.3,0,0,0-2.31,0L213,112.13l-.38-.22a.82.82,0,0,1,0-1.42l38.12-22.06a2.32,2.32,0,0,1,2.31,0l107.06,61.81A.83.83,0,0,1,360.09,151.67Z" transform="translate(-3.28 -7.73)"/><polygon class="cls-9" points="219.29 101.25 312.56 155.1 308.87 157.24 215.59 103.39 219.29 101.25"/><polygon class="cls-9" points="229.12 95.58 317.77 146.76 314.08 148.9 225.42 97.71 229.12 95.58"/><polygon class="cls-9" points="324.39 150.59 332.67 155.37 328.98 157.5 320.7 152.72 324.39 150.59"/><polygon class="cls-9" points="317.08 157.71 322.84 161.04 319.15 163.17 313.38 159.84 317.08 157.71"/><polygon class="cls-9" points="235.28 92.02 338.83 151.81 335.13 153.94 231.58 94.16 235.28 92.02"/><polygon class="cls-9" points="241.43 88.47 344.99 148.25 341.29 150.39 237.74 90.6 241.43 88.47"/><polygon class="cls-9" points="247.59 84.91 351.14 144.7 347.45 146.83 243.9 87.05 247.59 84.91"/></g></g><polygon class="cls-23" points="322.95 85.53 325.43 87.12 325.72 85.28 323.25 83.7 322.95 85.53"/><polygon class="cls-23" points="320.92 97.95 323.4 99.54 325.15 88.79 322.68 87.21 320.92 97.95"/><polygon class="cls-23" points="319.95 103.89 322.43 105.48 323.12 101.21 320.65 99.63 319.95 103.89"/><polygon class="cls-23" points="318.95 110.05 321.42 111.63 322.12 107.37 319.64 105.78 318.95 110.05"/><polygon class="cls-23" points="318.29 89.11 320.76 90.7 321.46 86.43 318.99 84.85 318.29 89.11"/><polygon class="cls-23" points="316.96 97.27 319.43 98.85 320.46 92.59 317.98 91 316.96 97.27"/><polygon class="cls-23" points="315.73 104.78 318.21 106.36 319.08 100.98 316.61 99.4 315.73 104.78"/><polygon class="cls-23" points="317.94 116.21 320.42 117.79 321.11 113.52 318.64 111.94 317.94 116.21"/><polygon class="cls-23" points="319.26 83.17 321.74 84.76 322.04 82.92 319.56 81.34 319.26 83.17"/><polygon class="cls-23" points="315.12 121 319.44 123.76 319.73 121.98 315.41 119.22 315.12 121"/><path class="cls-24" d="M165.71,266.21h0L65.1,208.13a2.28,2.28,0,0,1-1.24-1.95,2.73,2.73,0,0,1,1.56-2.27l20.91-12.07a5.81,5.81,0,0,1,5.34-.18l100.6,58.08a2.27,2.27,0,0,1,1.25,1.95A2.73,2.73,0,0,1,192,254L171.05,266a6,6,0,0,1-3,.75A4.83,4.83,0,0,1,165.71,266.21Zm-78.4-72.67L66.4,205.61c-.48.28-.58.52-.58.57s.07.13.27.25l100.6,58.08h0a3.89,3.89,0,0,0,3.38-.18L191,252.26c.48-.28.57-.52.57-.57s-.06-.13-.26-.25L90.69,193.36a2.84,2.84,0,0,0-1.4-.31A4.12,4.12,0,0,0,87.31,193.54Z" transform="translate(-3.28 -7.73)"/><path class="cls-25" d="M106,158.23a29.73,29.73,0,0,1,7.37,6.22c3.09-9.93,12.52-13,23.67-6.57,9.23,5.33,17.27,15.81,21.52,26.91a10,10,0,0,1,4.65,1.47c6,3.47,10.9,11.93,10.9,18.88,0,.15,0,.28,0,.43a13.24,13.24,0,0,1,5.61,1.88c7.7,4.45,13.94,15.26,13.94,24.15s-6.24,12.49-13.94,8.05L106,197.1c-9.29-5.37-16.83-18.42-16.83-29.15S96.71,152.87,106,158.23Z" transform="translate(-3.28 -7.73)"/><path class="cls-26" d="M106,158.23a27.31,27.31,0,0,1,4.43,3.25l8.24-4.77h0c4.53-3.19,11.08-3.05,18.37,1.16,9.23,5.33,17.27,15.81,21.52,26.91a10,10,0,0,1,4.65,1.47c6,3.47,10.9,11.93,10.9,18.88,0,.15,0,.28,0,.43a13.24,13.24,0,0,1,5.61,1.88c7.7,4.45,13.94,15.26,13.94,24.15,0,4.41-1.53,7.51-4,9h0l-.06,0h0l-20.18,11.72L165,231.14l-59-34c-9.29-5.37-16.83-18.42-16.83-29.15S96.71,152.87,106,158.23Z" transform="translate(-3.28 -7.73)"/><path class="cls-27" d="M73.56,169,94,157.11h0c3-1.82,7.3-1.59,12,1.12a27.31,27.31,0,0,1,4.43,3.25l8.24-4.77h0c4.53-3.19,11.08-3.05,18.37,1.16,9.23,5.33,17.27,15.81,21.52,26.91a10,10,0,0,1,4.65,1.47c6,3.47,10.9,11.93,10.9,18.88,0,.15,0,.28,0,.43a13.24,13.24,0,0,1,5.61,1.88c7.7,4.45,13.94,15.26,13.94,24.15,0,4.41-1.53,7.51-4,9h0l-.06,0h0l-20.18,11.72L165,231.14l-59-34c-7.53-4.35-13.91-13.75-16.06-22.87Z" transform="translate(-3.28 -7.73)"/><path class="cls-28" d="M85.75,170a29.47,29.47,0,0,1,7.37,6.21c3.09-9.92,12.52-13,23.67-6.56,9.23,5.32,17.27,15.8,21.52,26.9A10.13,10.13,0,0,1,143,198c6,3.48,10.9,11.93,10.9,18.88,0,.15,0,.29,0,.44a13.08,13.08,0,0,1,5.61,1.87c7.7,4.45,13.94,15.26,13.94,24.15s-6.24,12.5-13.94,8.05l-73.7-42.55c-9.29-5.36-16.83-18.41-16.83-29.15S76.46,164.62,85.75,170Z" transform="translate(-3.28 -7.73)"/><path class="cls-14" d="M92.45,176.61a30.09,30.09,0,0,0-7.37-6.22c-4.55-2.62-8.67-2.92-11.7-1.29,3.08-2.07,7.48-1.94,12.37.89a29.34,29.34,0,0,1,7,5.78C92.63,176.05,92.54,176.32,92.45,176.61Z" transform="translate(-3.28 -7.73)"/><path class="cls-14" d="M172.72,243.76c0-8.89-6.25-19.71-13.95-24.15a13.2,13.2,0,0,0-5.61-1.88c0-.15,0-.28,0-.43,0-7-4.88-15.41-10.9-18.88a9.94,9.94,0,0,0-4.64-1.47c-4.26-11.1-12.3-21.58-21.52-26.91-6.75-3.89-12.86-4.3-17.32-1.82,4.51-2.92,10.9-2.68,18,1.42,9.23,5.32,17.27,15.8,21.52,26.9A10.13,10.13,0,0,1,143,198c6,3.48,10.9,11.93,10.9,18.88,0,.15,0,.29,0,.44a13.08,13.08,0,0,1,5.61,1.87c7.7,4.45,13.94,15.26,13.94,24.15,0,4.57-1.65,7.74-4.29,9.14C171.35,250.93,172.72,247.92,172.72,243.76Z" transform="translate(-3.28 -7.73)"/><polygon class="cls-29" points="226.46 282.14 228.25 280.93 177.86 250.59 176.85 252.28 226.46 282.14"/><path class="cls-30" d="M302.94,288.17a1,1,0,0,1-.48-1.87L345.37,263l-62.16-36.16a1,1,0,0,1,1-1.73l63.69,37.06a1,1,0,0,1,.49.88,1,1,0,0,1-.52.86l-44.45,24.12A1.07,1.07,0,0,1,302.94,288.17Z" transform="translate(-3.28 -7.73)"/><path class="cls-31" d="M268.4,352.17a1,1,0,0,1-.5-.14l-72.69-42a1,1,0,0,1,0-1.73l72.69-42a1,1,0,0,1,1,0l72.69,42a1,1,0,0,1,0,1.73L268.9,352A1,1,0,0,1,268.4,352.17Zm-70.7-43L268.4,350l70.7-40.82-70.7-40.81Z" transform="translate(-3.28 -7.73)"/><polygon class="cls-32" points="265.11 329.34 313.38 301.47 265.12 273.61 216.85 301.47 265.11 329.34"/><path class="cls-33" d="M256.08,293.53s-.83.82-1.69,1.79a22.42,22.42,0,0,1-4.25,2.88c-1,.59-5.62,3.91-6.65,7.26s2.19,3.89,5.52,3.38,6.49-3.48,7.42-4.56a30.9,30.9,0,0,1,8.23-5.51c4.12-2,1.73-4.89,1.73-4.89Z" transform="translate(-3.28 -7.73)"/><path class="cls-33" d="M286,304.31a12.63,12.63,0,0,1,.77,3.5c.15,2,.31,6.2.39,7.45a10.51,10.51,0,0,1-2.22,7.12c-2.26,2.85-3.41,4-6.28,2.76s-2.69-6.08-2.11-8.57a69.88,69.88,0,0,0,1.15-8.67,1.72,1.72,0,0,1,.19-1Z" transform="translate(-3.28 -7.73)"/><path class="cls-9" d="M247.5,235.86s.05,22.33,5,34.31a86,86,0,0,1,3.65,22.95,4.45,4.45,0,0,0,.26,3.88c1.18,1.77,8.78,3.55,10.18-2.13s1.18-16.36-.09-20.85.91-16.71.91-16.71,2.05,1.38,4.57,10.27a114,114,0,0,0,5.32,14.75c.88,2.46,1.38,17.43.6,24.71,0,0,6.16,1,8-1.88s2.84-18.19,2.51-23.07-2-20.56-1.58-25.38,1.5-8.73.52-13.58S254,226.74,254,226.74Z" transform="translate(-3.28 -7.73)"/><path class="cls-33" d="M286.81,256.71c.4-4.83,1.5-8.73.52-13.58-.38-1.83-5.18-4.6-11-7.34-10-1.16-22.6-2.53-23.48-2.42a32.17,32.17,0,0,0-4.6,1.48l-.72,1s0,1.36.08,3.58c2.31.75,6.81.15,6.81.15.59,1.58,4.34,7.24,9.12,9.76s19,2.05,19.75,3,.65,13.15.52,14.7,1.05,11.37,2.16,20-1.15,18.83-1.22,19.16a3.46,3.46,0,0,0,1.16-1.09c1.86-2.91,2.84-18.19,2.51-23.07S286.41,261.53,286.81,256.71Z" transform="translate(-3.28 -7.73)"/><path class="cls-11" d="M260.23,163.14s-7.28,1.47-9.73,2a1.24,1.24,0,0,0-.9.75c-.75,1.76-2.65,7.24-1.52,15.35a76.12,76.12,0,0,1,.7,16.63L245,215.19s-4.62,16.5-4.27,17,9.51,7.79,12.45,6.87,2-2.61,2-2.61,2.06,12.09,12.52,12.24,19,.39,20.88-3.8.06-22-1.61-29.08-5.7-21.21-5.7-21.21L297,178l-12.84-10.32s-3-5.88-4.25-6.66-1.95-.16-1.95-.16Z" transform="translate(-3.28 -7.73)"/><path class="cls-34" d="M253.45,235.19c0,.6-.38,1.49-2.27,2.09-2.05.65-7-2.5-10.15-4.86,1.59,1.4,9.46,7.44,12.15,6.6a4.86,4.86,0,0,0,1.33-.63A21.42,21.42,0,0,1,253.45,235.19Z" transform="translate(-3.28 -7.73)"/><path class="cls-35" d="M288.56,243.44c-2,4.41-11,4.16-22,4a11.81,11.81,0,0,1-6.81-2.14,11.16,11.16,0,0,0,8,3.35c10.46.14,19,.39,20.88-3.8.62-1.37.83-4.22.79-7.67A18.61,18.61,0,0,1,288.56,243.44Z" transform="translate(-3.28 -7.73)"/><path class="cls-36" d="M279.65,160.86s2.6,3.3-1.36,7.57A104.88,104.88,0,0,0,268,182.69c-2.26,3.7-4.31,5.66-5.53,8.86,0,0-.06-3.84-.07-9.77,0-5.59.06-11.41.35-12.86C263.36,165.92,276.74,159.32,279.65,160.86Z" transform="translate(-3.28 -7.73)"/><path class="cls-37" d="M269.41,170.34s-1.39.82-1.86.74-1.95-1.59-1.95-1.59-3.79-.17-4.16-1.8a36.83,36.83,0,0,0-1-4.14c-.37-.85-1.9-5-1.87-6.6s.16-4.58-.51-6.16-1.25-17.17,13.78-16.36,10,16.32,10,16.32,1.09.49.37,2.49-.87,2.19-1.23,3.18a4.48,4.48,0,0,1-1.52,2.42l-.3,1.84a7.41,7.41,0,0,1-1.29,5.55C275.93,168.93,269.41,170.34,269.41,170.34Z" transform="translate(-3.28 -7.73)"/><path class="cls-9" d="M250.08,165.29s-1.61.2-7.14,13.16c-3.08,7.23-7.75,14.69-8.83,20.09s-.7,11.22.36,11.66,19.55,7.88,25.34,10.23a.55.55,0,0,0,.75-.4l1.84-9-11.5-4.77a16.5,16.5,0,0,0-4.19-3.82s2.43-4.23,2.31-5.4.54-13.28-.7-18.24S250.08,165.29,250.08,165.29Z" transform="translate(-3.28 -7.73)"/><path class="cls-37" d="M256,200.06a22.65,22.65,0,0,0-2-1.28c-.4-.16-2.51-.95-2.92-1.14a8.06,8.06,0,0,0-2.17,0,.67.67,0,0,0-.54.34c-.52.9-2,3.53-1.83,4.55,0,0,3.81,2.54,4.21,3.64l.61.15S254.15,200.81,256,200.06Z" transform="translate(-3.28 -7.73)"/><path class="cls-9" d="M287,215.77c-.4-1.7-.94-3.82-1.53-6l-23.74,9.49a24.79,24.79,0,0,0,19.16,8.57,16.21,16.21,0,0,0,7.69-2.22A93.92,93.92,0,0,0,287,215.77Z" transform="translate(-3.28 -7.73)"/><path class="cls-9" d="M297,178s-6.22.7-11.42,8.51a120.45,120.45,0,0,0-9.08,16.9l-.2,1a4.18,4.18,0,0,1-5.9,3c-5.23-2.49-13-6.26-14.4-7.36a13.47,13.47,0,0,0-6.18,8.55c-1.14,4.85-.88,4.87-.88,4.87s20.63,10.26,28.69,10.36,18.94-26.13,20.2-31.58S300.53,179.63,297,178Z" transform="translate(-3.28 -7.73)"/><path class="cls-38" d="M297,178s-6.22.7-11.42,8.51a120.45,120.45,0,0,0-9.08,16.9l-.2,1a4.18,4.18,0,0,1-5.9,3c-5.23-2.49-13-6.26-14.4-7.36a13.47,13.47,0,0,0-6.18,8.55c-1.14,4.85-.88,4.87-.88,4.87s20.63,10.26,28.69,10.36,18.94-26.13,20.2-31.58S300.53,179.63,297,178Z" transform="translate(-3.28 -7.73)"/><path class="cls-11" d="M273.39,208.73s2.57,2.52,3.75,1.2.84-1.47.84-1.47,2.37,0,2.69-1.44,1.48-.67,1.59-2.32-1.89-1.36-1.89-1.36Z" transform="translate(-3.28 -7.73)"/><path class="cls-37" d="M270.24,207.33s.74-.65,1.69-1.42,2.55-4,2.81-4.28,3.47-2.62,5-2.62.35,1.66,0,1.89-1.85.94-1.85.94-1.56,1.24-1.74,1.42,4.25-.2,4.94.25a1.19,1.19,0,0,1,0,1.87,1.74,1.74,0,0,1-.88.27,1.52,1.52,0,0,1-.87,1.92c-1.34.59-1.64.24-1.64.24s-.17,2.29-2.34,1.78Z" transform="translate(-3.28 -7.73)"/><path class="cls-39" d="M258,142.82s-2.12,6.2,3.09,4.55,10-4.51,11.55-3.33c1.22.89,1.1,3.53,1,4.74a1.75,1.75,0,0,0,.28,1.18l1.48,2.26a1.74,1.74,0,0,1,.27.86l.07,1.55a.78.78,0,0,0,.71.74l.36,0a.77.77,0,0,0,.82-.62l.46-2.27s1.29-3,3.83-1.76c0,0,1.78-2.27,1.33-7.22s-2.53-10.15-12.21-11.21S258,142.82,258,142.82Z" transform="translate(-3.28 -7.73)"/><path class="cls-40" d="M272,175.91l-1.43-1.16A7.77,7.77,0,0,0,268.6,177c-.55,1.17-.12,4.94-.12,4.94l-.46.75-.52-1-.35-4.45s.58-3.27.63-3.36,2.79.37,2.79.37A5.82,5.82,0,0,1,272,175.91Z" transform="translate(-3.28 -7.73)"/><path class="cls-40" d="M265.08,171.32a4.9,4.9,0,0,0-2.26.62l1.88.16C265,172.14,265.08,171.32,265.08,171.32Z" transform="translate(-3.28 -7.73)"/><path class="cls-9" d="M268,171.74l2.54,2.5a5.9,5.9,0,0,0-3,3s-2.84.45-3.08-.58.1-3.6-.21-4.76S268,171.74,268,171.74Z" transform="translate(-3.28 -7.73)"/><path class="cls-9" d="M264.6,176.63a14.59,14.59,0,0,1-1.09,3c-.55.86-1.11,1.84-1.11,1.84l-.25,12.48s4.83-9.35,5.87-11.24c0,0,0-4.56-.45-5.43S264.6,176.63,264.6,176.63Z" transform="translate(-3.28 -7.73)"/><path class="cls-41" d="M277.38,158.49c-3.23,8.62-11.78,11-11.78,11s1.48,1.51,1.95,1.59,1.86-.74,1.86-.74,6.52-1.41,8.46-4.11a7.41,7.41,0,0,0,1.29-5.55l.3-1.84A2.07,2.07,0,0,1,277.38,158.49Z" transform="translate(-3.28 -7.73)"/><path class="cls-9" d="M284,168.84s-1.29,4.08-1.45,4.23a18.44,18.44,0,0,1-3-.25l1.32,2.65s-14.66,15-17.83,23.12a175,175,0,0,1,19.22-22.44l-1.62-2.59,2.9.64Z" transform="translate(-3.28 -7.73)"/><path class="cls-9" d="M260.66,164.64l-.78.84.87.86-2.7,2.32s-1.22,16.73,1.73,27.9c0,0-4.13-10.28-2.68-28.38l2.9-1.87-.91-.94Z" transform="translate(-3.28 -7.73)"/><path class="cls-33" d="M267.37,257.31l.09.08-3.6-4c1.65,2.45-.59,13.43-.86,15.94s1.78,7.79,2.45,13.92S264.23,298,264.22,298a4.69,4.69,0,0,0,2.33-3.16c1.4-5.67,1.18-16.36-.09-20.85S267.37,257.31,267.37,257.31Z" transform="translate(-3.28 -7.73)"/><path class="cls-42" d="M277.65,223.84c8.06.11,18.94-26.13,20.2-31.58.21-.91.42-1.87.62-2.84,0,.08-2.26,5.75-4.4,10.77s-13.31,20.27-18.84,21.14c-5,.79-22.63-8-26-9.72-.36,1.85-.23,1.87-.23,1.87S269.59,223.74,277.65,223.84Z" transform="translate(-3.28 -7.73)"/><path class="cls-43" d="M276.73,155.4a.77.77,0,0,0,.82-.62l.46-2.27s1.29-3,3.83-1.76c0,0,1.68-2.16,1.36-6.84-3,4.22-9.36,6.05-9.36,6.05l1.48,2.26a1.74,1.74,0,0,1,.27.86l.07,1.55a.78.78,0,0,0,.71.74Z" transform="translate(-3.28 -7.73)"/><path class="cls-9" d="M207.87,42.05l46.71,27c2.17,1.25,3.93,4.62,3.93,7.51v44.54c0,2.9-1.76,4.23-3.93,3L199.42,92.2Z" transform="translate(-3.28 -7.73)"/><path class="cls-44" d="M164.51,16.66,166.78,15h0a2.43,2.43,0,0,1,2.79.07L249,61c2.17,1.25,3.93,4.62,3.93,7.51V113a3.55,3.55,0,0,1-1.26,3.11h0l-2.36,1.69-.13-1.73L249,116,169.57,70.13c-2.17-1.26-3.93-4.62-3.93-7.52V18.07a6,6,0,0,1,.11-1.17Z" transform="translate(-3.28 -7.73)"/><path class="cls-45" d="M252.76,66.71l-21,12.11-5.28-3L250.33,62A10,10,0,0,1,252.76,66.71Z" transform="translate(-3.28 -7.73)"/><path class="cls-5" d="M167.2,71.82l79.47,45.88c2.17,1.25,3.93-.08,3.93-3V70.19c0-2.9-1.76-6.26-3.93-7.52L167.2,16.79c-2.17-1.25-3.93.08-3.93,3V64.31C163.27,67.2,165,70.57,167.2,71.82Z" transform="translate(-3.28 -7.73)"/><path class="cls-14" d="M250.17,115V70.41c0-2.89-1.76-6.26-3.93-7.51L166.77,17a2.69,2.69,0,0,0-2.29-.34,2.46,2.46,0,0,1,2.72.11l79.47,45.88c2.17,1.26,3.93,4.62,3.93,7.52v44.54c0,1.75-.65,2.93-1.64,3.31A3.66,3.66,0,0,0,250.17,115Z" transform="translate(-3.28 -7.73)"/><path class="cls-46" d="M174.55,43.77l64.86,37.41c.5.29.93.45,1.22,0a.6.6,0,0,0,0-.27V71.07a2.47,2.47,0,0,0-1-2L174.25,31.35c-.05,0-.1-.08-.15-.07-.49.08-.51.53-.51,1.23l-.16,9.43A2.28,2.28,0,0,0,174.55,43.77Z" transform="translate(-3.28 -7.73)"/><path class="cls-46" d="M174.42,65.16l65,37.45c.5.29,1.15.59,1.25,0a2.45,2.45,0,0,0,0-.27V92.52a2.45,2.45,0,0,0-1-2L174.25,52.8l-.15-.07c-.5-.19-.63.45-.63,1.15l0,9.32A2.39,2.39,0,0,0,174.42,65.16Z" transform="translate(-3.28 -7.73)"/><path class="cls-14" d="M174.1,31.28a2.45,2.45,0,0,0,0,.27v9.84a2.47,2.47,0,0,0,1,2l65.36,37.74.15.07c-.1.57-.52.8-1,.51L174.25,44a2.5,2.5,0,0,1-1-2V32.14C173.21,31.44,173.6,31.09,174.1,31.28Z" transform="translate(-3.28 -7.73)"/><path class="cls-14" d="M174.1,52.73a2.13,2.13,0,0,0,0,.27v9.84a2.47,2.47,0,0,0,1,2l65.36,37.74.15.06c-.1.58-.52.81-1,.52L174.25,65.4a2.48,2.48,0,0,1-1-2V53.58C173.21,52.89,173.6,52.54,174.1,52.73Z" transform="translate(-3.28 -7.73)"/><path class="cls-14" d="M222,66.52l-.8,1.51-1.52-1.91,1.15-1.19-1.73-1.76.57-1.46,1.56,1.92L221,61.35l1.91,1.1-.2,2,1.56-.1.58,2.1-1.71-.22,1.15,2.54-1.5.16Z" transform="translate(-3.28 -7.73)"/><path class="cls-14" d="M214.45,62.18l-.79,1.52-1.52-1.91,1.15-1.19-1.73-1.76.57-1.46,1.56,1.91L213.48,57l1.91,1.1-.2,2,1.56-.1.58,2.11-1.71-.23,1.15,2.54-1.5.16Z" transform="translate(-3.28 -7.73)"/><path class="cls-14" d="M206.94,57.85l-.8,1.51-1.52-1.91,1.16-1.19-1.73-1.76.56-1.46L206.17,55,206,52.67l1.92,1.1-.21,2,1.57-.09.57,2.1-1.7-.22,1.14,2.53-1.49.16Z" transform="translate(-3.28 -7.73)"/><path class="cls-14" d="M199.43,53.51l-.8,1.51-1.52-1.91,1.16-1.19-1.73-1.76.56-1.46,1.56,1.92-.21-2.29,1.91,1.11-.2,2,1.56-.09.58,2.1-1.7-.22,1.14,2.53-1.49.16Z" transform="translate(-3.28 -7.73)"/><path class="cls-14" d="M191.92,49.17l-.8,1.51-1.52-1.9,1.15-1.2L189,45.82l.57-1.46,1.56,1.92L190.94,44l1.91,1.1-.2,2,1.56-.1.58,2.1-1.71-.22,1.15,2.54-1.5.16Z" transform="translate(-3.28 -7.73)"/><path class="cls-14" d="M222,88l-.8,1.51-1.52-1.91,1.15-1.19-1.73-1.76.57-1.46,1.56,1.92L221,82.79l1.91,1.11-.2,2,1.56-.09.58,2.1-1.71-.22,1.15,2.54-1.5.16Z" transform="translate(-3.28 -7.73)"/><path class="cls-14" d="M214.45,83.63l-.79,1.52-1.52-1.91,1.15-1.19-1.73-1.77.57-1.45,1.56,1.91-.21-2.28,1.91,1.1-.2,2,1.56-.1.58,2.1-1.71-.22,1.15,2.54-1.5.16Z" transform="translate(-3.28 -7.73)"/><path class="cls-14" d="M206.94,79.3l-.8,1.51-1.52-1.91,1.16-1.19L204.05,76l.56-1.46,1.56,1.91L206,74.12l1.92,1.1-.21,2,1.57-.09.57,2.1-1.7-.22,1.14,2.53-1.49.16Z" transform="translate(-3.28 -7.73)"/><path class="cls-14" d="M199.43,75l-.8,1.51-1.52-1.91,1.16-1.19-1.73-1.76.56-1.46,1.56,1.92-.21-2.29,1.91,1.11-.2,2,1.56-.09.58,2.1-1.7-.22,1.14,2.53-1.49.16Z" transform="translate(-3.28 -7.73)"/><path class="cls-14" d="M191.92,70.62l-.8,1.51-1.52-1.91L190.75,69,189,67.27l.57-1.46,1.56,1.92-.21-2.29,1.91,1.11-.2,2,1.56-.1.58,2.1-1.71-.22,1.15,2.54-1.5.16Z" transform="translate(-3.28 -7.73)"/><polygon class="cls-47" points="185.86 281.77 175.95 287.5 166.04 281.77 175.95 276.05 185.86 281.77"/><polygon class="cls-48" points="218.89 237.28 208.98 243 199.07 237.28 208.98 231.56 218.89 237.28"/><polygon class="cls-48" points="174.85 85.38 164.94 91.1 155.03 85.38 164.94 79.66 174.85 85.38"/><polygon class="cls-47" points="229.9 256.35 219.99 262.07 210.07 256.35 219.99 250.63 229.9 256.35"/><polygon class="cls-47" points="350.99 224.57 341.08 230.29 331.17 224.57 341.08 218.85 350.99 224.57"/><polygon class="cls-47" points="117.62 135.09 107.7 140.81 97.79 135.09 107.7 129.37 117.62 135.09"/><polygon class="cls-47" points="357.63 134.94 347.72 140.66 337.81 134.94 347.72 129.21 357.63 134.94"/><polygon class="cls-48" points="52.66 145.13 42.75 150.85 32.84 145.13 42.75 139.4 52.66 145.13"/><path class="cls-49" d="M91.54,131a1.82,1.82,0,0,1-.91-.24L48.87,106.62a1.8,1.8,0,0,1-.9-1.57,1.83,1.83,0,0,1,.9-1.57L90.63,79.37a1.83,1.83,0,0,1,1.81,0l41.76,24.11a1.82,1.82,0,0,1,0,3.14L92.44,130.73A1.78,1.78,0,0,1,91.54,131Zm.09-2h0Zm-41.49-24L91.54,129l41.39-23.9-41.4-23.9Z" transform="translate(-3.28 -7.73)"/><polygon class="cls-50" points="125.87 88.58 125.87 80.99 88.25 101.75 50.63 80.99 50.63 88.58 88.25 110.3 125.87 88.58"/><polygon class="cls-51" points="88.25 102.71 50.63 80.99 88.25 59.27 125.87 80.99 88.25 102.71"/><polygon class="cls-52" points="88.25 102.09 51.17 80.68 50.63 80.99 88.25 102.71 125.87 80.99 125.33 80.68 88.25 102.09"/><polygon class="cls-53" points="88.25 94.42 65 80.99 88.25 67.57 111.51 80.99 88.25 94.42"/><polygon class="cls-54" points="88.25 94.42 64.99 80.99 88.25 67.57 111.51 80.99 88.25 94.42"/><polygon class="cls-55" points="88.25 48.78 111.51 62.21 111.51 80.99 88.25 67.57 88.25 48.78"/><polygon class="cls-56" points="88.25 67.57 64.99 80.99 64.99 62.21 88.25 48.78 88.25 67.57"/><polygon class="cls-57" points="88.25 75.64 64.99 62.21 88.25 48.78 111.51 62.21 88.25 75.64"/><polygon class="cls-58" points="88.25 75.64 88.25 94.42 111.51 80.99 111.51 62.21 88.25 75.64"/><polygon class="cls-59" points="64.99 62.21 64.99 80.99 88.25 94.42 88.25 75.64 64.99 62.21"/></g></g></svg>