<?xml version="1.0" encoding="utf-8"?>
<!-- Generator: Adobe Illustrator 23.0.3, SVG Export Plug-In . SVG Version: 6.00 Build 0)  -->
<svg version="1.1" id="Layer_1" xmlns="http://www.w3.org/2000/svg" xmlns:xlink="http://www.w3.org/1999/xlink" x="0px" y="0px"
	 viewBox="0 0 512 512" style="enable-background:new 0 0 512 512;" xml:space="preserve">
<style type="text/css">
	.st0{fill-rule:evenodd;clip-rule:evenodd;fill:#FF7824;}
</style>
<g>
	<path class="st0" d="M502,197.9h-29.2c-5.1-19-12.6-37.1-22.5-54.2l20.7-20.7c3.9-3.9,3.9-10.2,0-14.1l-68-68
		c-3.9-3.9-10.2-3.9-14.1,0l-20.7,20.7c-17-9.9-35.2-17.4-54.2-22.5V10c0-5.5-4.5-10-10-10h-96.1c-5.5,0-10,4.5-10,10v29.2
		c-19,5.1-37.1,12.6-54.2,22.5L123.1,41c-3.9-3.9-10.2-3.9-14.1,0l-68,68c-3.9,3.9-3.9,10.2,0,14.1l20.7,20.7
		c-9.9,17-17.4,35.2-22.5,54.2H10c-5.5,0-10,4.5-10,10v96.1c0,5.5,4.5,10,10,10h29.2c5.1,19,12.6,37.1,22.5,54.2L41,388.9
		c-3.9,3.9-3.9,10.2,0,14.1l68,68c3.9,3.9,10.2,3.9,14.1,0l20.7-20.7c17,9.9,35.2,17.4,54.2,22.5V502c0,5.5,4.5,10,10,10h8.1
		c5.5,0,10-4.5,10-10c0-4.9-3.5-8.9-8.1-9.8V465c0-4.7-3.2-8.7-7.8-9.7c-22.2-5.1-43.3-13.8-62.6-26c-4-2.5-9.1-1.9-12.4,1.4
		L116,449.8L62.2,396l19.1-19.1c3.3-3.3,3.9-8.4,1.4-12.4c-12.1-19.4-20.9-40.4-26-62.6c-1-4.5-5.1-7.8-9.7-7.8H20v-76.1h27
		c4.7,0,8.7-3.2,9.7-7.8c5.1-22.2,13.8-43.2,26-62.6c2.5-3.9,1.9-9.1-1.4-12.4L62.2,116L116,62.2l19.1,19.1
		c3.3,3.3,8.4,3.9,12.4,1.4c19.4-12.1,40.4-20.9,62.6-26c4.5-1,7.8-5.1,7.8-9.7V20h76.1v27c0,4.7,3.2,8.7,7.8,9.7
		c22.2,5.1,43.3,13.8,62.6,26c4,2.5,9.1,1.9,12.4-1.4L396,62.2l53.8,53.8l-19.1,19.1c-3.3,3.3-3.9,8.4-1.4,12.4
		c12.1,19.4,20.9,40.4,26,62.6c1,4.5,5.1,7.8,9.7,7.8h27v76.1h-27c-4.7,0-8.7,3.2-9.7,7.8c-5.1,22.2-13.8,43.2-26,62.6
		c-2.5,3.9-1.9,9.1,1.4,12.4l19.1,19.1L396,449.8l-19.1-19.1c-3.3-3.3-8.4-3.9-12.4-1.4c-19.4,12.1-40.4,20.9-62.6,26
		c-4.5,1-7.8,5.1-7.8,9.7v27.2c-4.6,0.9-8.1,5-8.1,9.8c0,5.5,4.5,10,10,10h8.1c5.5,0,10-4.5,10-10v-29.2c19-5.1,37.1-12.6,54.2-22.5
		l20.7,20.7c3.9,3.9,10.2,3.9,14.1,0l68-68c3.9-3.9,3.9-10.2,0-14.1l-20.7-20.7c9.9-17,17.4-35.2,22.5-54.2H502c5.5,0,10-4.5,10-10
		v-96.1C512,202.4,507.5,197.9,502,197.9z"/>
	<path class="st0" d="M419.2,256c0-90-73.2-163.2-163.2-163.2C166,92.8,92.8,166,92.8,256S166,419.2,256,419.2
		C346,419.2,419.2,346,419.2,256z M236.3,397.9c-0.2-0.2-0.4-0.3-0.6-0.5c-20.8-15.7-35.9-37.6-45.1-65.4
		c16.9-7,35.2-11.1,54.6-12.1v78.9C242.2,398.6,239.2,398.3,236.3,397.9z M235.7,114.6c0.2-0.2,0.4-0.3,0.6-0.5c3-0.4,5.9-0.7,8.9-1
		v78.9c-19.4-1-37.7-5.1-54.6-12.1C199.8,152.2,214.9,130.4,235.7,114.6z M274.6,114.6c20.8,15.8,35.9,37.6,45.1,65.5
		c-16.9,6.9-35.2,11-54.6,12v-79c2.9,0.2,5.8,0.4,8.6,0.8C274,114.1,274.3,114.4,274.6,114.6z M274.6,397.4
		c-0.3,0.2-0.6,0.5-0.9,0.8c-2.9,0.4-5.7,0.6-8.6,0.8v-79c19.4,1,37.8,5.1,54.6,12C310.5,359.7,295.4,381.6,274.6,397.4z
		 M265.1,300.1v-34.2h65.3c-0.5,16.9-2.3,32.5-5.4,46.8C306.4,305.4,286.3,301.1,265.1,300.1z M265.1,246.1v-34.2
		c21.2-1,41.3-5.3,59.9-12.6c3.1,14.3,4.9,29.9,5.4,46.8H265.1z M245.2,211.9v34.2h-65.3c0.5-16.9,2.3-32.5,5.5-46.9
		C204,206.6,224,210.9,245.2,211.9z M245.2,265.9v34.2c-21.2,1-41.3,5.3-59.8,12.6c-3.1-14.3-5-30-5.5-46.9H245.2z M312.6,387.6
		c10.6-13.5,19-29.1,25.1-46.8c7.5,4.3,14.5,9.2,21.2,14.8C345.8,369,330.1,380,312.6,387.6z M398.9,246.1h-48.6
		c-0.6-20-2.9-38.5-6.9-55.4c10-5.4,19.5-11.8,28.3-19.1C387.2,192.8,397,218.4,398.9,246.1z M350.2,265.9h48.6
		c-1.9,27.7-11.7,53.3-27.2,74.5c-8.8-7.3-18.3-13.7-28.3-19.1C347.4,304.4,349.7,285.9,350.2,265.9z M358.9,156.5
		c-6.7,5.5-13.7,10.5-21.2,14.8c-6.1-17.7-14.5-33.3-25.1-46.8C330.1,132,345.8,143,358.9,156.5z M196.8,125.6
		c-10.1,13.2-18.2,28.4-24.2,45.6c-7.1-4.1-13.8-8.7-20.2-13.9C164.9,144.1,180,133.3,196.8,125.6z M113.1,265.9H160
		c0.6,20.1,2.9,38.6,6.9,55.4c-9.6,5.2-18.7,11.2-27.2,18.2C124.6,318.5,115,293.2,113.1,265.9z M160,246.1h-46.9
		c1.9-27.4,11.5-52.6,26.6-73.6c8.5,7,17.6,13,27.2,18.2C162.9,207.6,160.6,226,160,246.1z M152.4,354.8c6.4-5.2,13.2-9.9,20.2-13.9
		c6,17.2,14,32.4,24.2,45.6C180,378.7,164.9,367.9,152.4,354.8z"/>
	<path class="st0" d="M256,492c-5.5,0-10,4.5-10,10s4.5,10,10,10c5.5,0,10-4.5,10-10S261.5,492,256,492z"/>
</g>
</svg>
