<svg xmlns="http://www.w3.org/2000/svg" width="19" height="26.166" viewBox="0 0 19 26.166">
  <g id="padlock_1_" data-name="padlock (1)" transform="translate(-70.11)">
    <g id="Group_140" data-name="Group 140" transform="translate(77.013 14.14)">
      <g id="Group_139" data-name="Group 139" transform="translate(0)">
        <path id="Path_194" data-name="Path 194" d="M207.788,276.673A2.6,2.6,0,0,0,206,281.155V283.5a1.786,1.786,0,0,0,3.573,0v-2.344a2.6,2.6,0,0,0-1.786-4.482Zm.919,3.572a1.237,1.237,0,0,0-.39.9V283.5a.529.529,0,0,1-1.057,0V281.14a1.238,1.238,0,0,0-.39-.9,1.327,1.327,0,0,1-.421-.975,1.339,1.339,0,1,1,2.678,0A1.327,1.327,0,0,1,208.706,280.245Z" transform="translate(-205.191 -276.673)"/>
      </g>
    </g>
    <g id="Group_142" data-name="Group 142" transform="translate(70.11)">
      <g id="Group_141" data-name="Group 141">
        <path id="Path_195" data-name="Path 195" d="M87.224,10.726H85.337v-5a5.727,5.727,0,1,0-11.455,0v5H72a1.889,1.889,0,0,0-1.886,1.886V24.28A1.888,1.888,0,0,0,72,26.166H87.224A1.888,1.888,0,0,0,89.11,24.28V12.612A1.889,1.889,0,0,0,87.224,10.726Zm-12.084-5a4.47,4.47,0,1,1,8.94,0v5H75.14ZM87.852,24.28h0a.63.63,0,0,1-.629.629H72a.63.63,0,0,1-.629-.629V12.612A.63.63,0,0,1,72,11.983H87.224a.63.63,0,0,1,.629.629Z" transform="translate(-70.11)"/>
      </g>
    </g>
  </g>
</svg>
