<?xml version="1.0" encoding="iso-8859-1"?>
<!-- Generator: Adobe Illustrator 19.0.0, SVG Export Plug-In . SVG Version: 6.00 Build 0)  -->
<svg version="1.1" id="Layer_1" xmlns="http://www.w3.org/2000/svg" xmlns:xlink="http://www.w3.org/1999/xlink" x="0px" y="0px"
	 viewBox="0 0 450 450" style="enable-background:new 0 0 450 450;" xml:space="preserve">
<g>
	<path d="M281.213,0H60v450h330V108.787L281.213,0z M290,51.213L338.787,100H290V51.213z M90,420V30h170v100h100v290H90z"/>
	<path d="M310.229,317.258c-8.652-7.204-23.416-11.428-38.71-13.886c-5.13-7.104-10.675-15.594-16.359-25.437
		c-5.698-9.866-10.289-18.932-13.88-26.939c5.545-14.535,9.287-29.499,7.333-40.599c-2.18-12.385-11.441-20.392-23.594-20.396
		c-0.004,0-0.007,0-0.012,0c-12.164,0-21.424,8.014-23.59,20.417c-1.937,11.095,1.816,26.054,7.371,40.588
		c-3.589,8.01-8.176,17.076-13.875,26.947c-5.68,9.837-11.22,18.319-16.347,25.417c-15.41,2.472-30.309,6.732-38.959,14.019
		c-9.597,8.084-11.878,20.099-5.812,30.606c6.075,10.523,17.635,14.546,29.449,10.247c10.619-3.863,21.739-14.632,31.574-26.74
		c8.711-0.895,18.828-1.454,30.187-1.455c0.016,0,0.031,0,0.047,0c11.374,0,21.499,0.56,30.212,1.456
		c9.874,12.163,21.04,22.98,31.682,26.809c3.101,1.116,6.179,1.656,9.145,1.656c8.325,0,15.75-4.264,20.185-12.049
		C322.291,337.359,319.918,325.323,310.229,317.258z M224.849,300.048c-2.365,0.001-5.14,0.028-8.225,0.101
		c1.633-2.68,3.065-5.109,4.265-7.187c1.215-2.105,2.625-4.598,4.152-7.396c1.551,2.838,2.979,5.364,4.211,7.494
		c1.187,2.053,2.6,4.448,4.209,7.089C230.221,300.072,227.292,300.056,224.849,300.048z"/>
</g>
<g>
</g>
<g>
</g>
<g>
</g>
<g>
</g>
<g>
</g>
<g>
</g>
<g>
</g>
<g>
</g>
<g>
</g>
<g>
</g>
<g>
</g>
<g>
</g>
<g>
</g>
<g>
</g>
<g>
</g>
</svg>
