<?xml version="1.0" encoding="utf-8"?>
<!-- Generator: Adobe Illustrator 23.0.3, SVG Export Plug-In . SVG Version: 6.00 Build 0)  -->
<svg version="1.1" id="Layer_1" xmlns="http://www.w3.org/2000/svg" xmlns:xlink="http://www.w3.org/1999/xlink" x="0px" y="0px"
	 viewBox="0 0 496 496" style="enable-background:new 0 0 496 496;" xml:space="preserve">
<style type="text/css">
	.st0{fill:#FF7824;}
</style>
<path class="st0" d="M48,448h16v16H48V448z"/>
<path class="st0" d="M80,448h16v16H80V448z"/>
<path class="st0" d="M112,448h16v16h-16V448z"/>
<path class="st0" d="M384,448h64v16h-64V448z"/>
<path class="st0" d="M480,416V152c0-22.1-17.9-40-40-40h-24C416,50.2,365.8,0,304,0S192,50.2,192,112H56c-22.1,0-40,17.9-40,40v264
	H0v40c0,22.1,17.9,40,40,40h416c22.1,0,40-17.9,40-40v-40H480z M440,128c13.2,0,24,10.8,24,24v264h-16V160c0-8.8-7.2-16-16-16h-20.7
	c1.5-5.2,2.7-10.5,3.4-16H440z M212.6,82.6l84.9,35.4l29.1,87.2c-7.3,1.8-14.8,2.8-22.6,2.8c-52.9,0-96-43.1-96-96
	C208,101.7,209.7,91.9,212.6,82.6z M341.8,200.2l-28.7-86l64.1-64.1C391.4,66.8,400,88.4,400,112C400,151.5,376,185.5,341.8,200.2z
	 M304,16c23.6,0,45.2,8.6,61.9,22.8l-63.8,63.8l-83.3-34.7C234.9,37.1,267,16,304,16z M32,152c0-13.2,10.8-24,24-24h137.3
	c0.8,5.5,1.9,10.8,3.4,16H64c-8.8,0-16,7.2-16,16v256H32V152z M480,456c0,13.2-10.8,24-24,24H40c-13.2,0-24-10.8-24-24v-24h164.8
	c11.5,10.3,26.2,16,41.8,16h50.7c15.6,0,30.3-5.7,41.8-16H416v-16H308.7l-2.3,2.3c-8.8,8.8-20.5,13.7-33,13.7h-50.7
	c-12.5,0-24.2-4.8-33-13.7l-2.3-2.3H64V160h139c18,37.8,56.5,64,101,64s83-26.2,101-64h27v272h48V456z"/>
<path class="st0" d="M392,336c-4.9,0-9.5,1.5-13.3,4l-27.9-20.9c0.7-2.3,1.2-4.6,1.2-7.1c0-13.2-10.8-24-24-24s-24,10.8-24,24
	c0,2.8,0.6,5.4,1.4,7.8l-44.8,35.8c-3.7-2.3-8-3.7-12.6-3.7c-5.4,0-10.3,1.8-14.3,4.8l-34.5-23c0.5-1.9,0.8-3.8,0.8-5.8
	c0-13.2-10.8-24-24-24s-24,10.8-24,24c0,2,0.3,4,0.8,5.8l-34.5,23c-4-3-8.9-4.8-14.3-4.8c-13.2,0-24,10.8-24,24s10.8,24,24,24
	s24-10.8,24-24c0-2-0.3-4-0.8-5.8l34.5-23c4,3,8.9,4.8,14.3,4.8s10.3-1.8,14.3-4.8l34.5,23c-0.5,1.9-0.8,3.8-0.8,5.8
	c0,13.2,10.8,24,24,24s24-10.8,24-24c0-2.8-0.6-5.4-1.4-7.8l44.8-35.8c3.7,2.3,8,3.7,12.6,3.7c4.9,0,9.5-1.5,13.3-4l27.9,20.9
	c-0.7,2.3-1.2,4.6-1.2,7.1c0,13.2,10.8,24,24,24s24-10.8,24-24S405.2,336,392,336z M104,384c-4.4,0-8-3.6-8-8s3.6-8,8-8s8,3.6,8,8
	S108.4,384,104,384z M176,336c-4.4,0-8-3.6-8-8s3.6-8,8-8s8,3.6,8,8S180.4,336,176,336z M248,384c-4.4,0-8-3.6-8-8s3.6-8,8-8
	s8,3.6,8,8S252.4,384,248,384z M328,320c-4.4,0-8-3.6-8-8s3.6-8,8-8s8,3.6,8,8S332.4,320,328,320z M392,368c-4.4,0-8-3.6-8-8
	s3.6-8,8-8s8,3.6,8,8S396.4,368,392,368z"/>
<path class="st0" d="M208,176H80v112h128V176z M192,272H96v-80h96V272z"/>
<path class="st0" d="M112,208h64v16h-64V208z"/>
<path class="st0" d="M112,240h64v16h-64V240z"/>
<path class="st0" d="M224,256h16v16h-16V256z"/>
<path class="st0" d="M256,256h160v16H256V256z"/>
</svg>
