<?xml version="1.0" encoding="utf-8"?>
<!-- Generator: Adobe Illustrator 23.0.3, SVG Export Plug-In . SVG Version: 6.00 Build 0)  -->
<svg version="1.1" id="Ñëîé_1" xmlns="http://www.w3.org/2000/svg" xmlns:xlink="http://www.w3.org/1999/xlink" x="0px" y="0px"
	 viewBox="0 0 274.6 275.5" style="enable-background:new 0 0 274.6 275.5;" xml:space="preserve">
<style type="text/css">
	.st0{clip-path:url(#SVGID_2_);fill:#751480;}
	.st1{clip-path:url(#SVGID_2_);fill:#761580;}
	.st2{clip-path:url(#SVGID_2_);fill:#771680;}
	.st3{clip-path:url(#SVGID_2_);fill:#781780;}
	.st4{clip-path:url(#SVGID_2_);fill:#791881;}
	.st5{clip-path:url(#SVGID_2_);fill:#7A1881;}
	.st6{clip-path:url(#SVGID_2_);fill:#7A1981;}
	.st7{clip-path:url(#SVGID_2_);fill:#7B1981;}
	.st8{clip-path:url(#SVGID_2_);fill:#7C1A81;}
	.st9{clip-path:url(#SVGID_2_);fill:#7C1B81;}
	.st10{clip-path:url(#SVGID_2_);fill:#7D1B81;}
	.st11{clip-path:url(#SVGID_2_);fill:#7E1C81;}
	.st12{clip-path:url(#SVGID_2_);fill:#7F1D81;}
	.st13{clip-path:url(#SVGID_2_);fill:#7F1D82;}
	.st14{clip-path:url(#SVGID_2_);fill:#801E82;}
	.st15{clip-path:url(#SVGID_2_);fill:#811F82;}
	.st16{clip-path:url(#SVGID_2_);fill:#822082;}
	.st17{clip-path:url(#SVGID_2_);fill:#832082;}
	.st18{clip-path:url(#SVGID_2_);fill:#832182;}
	.st19{clip-path:url(#SVGID_2_);fill:#842282;}
	.st20{clip-path:url(#SVGID_2_);fill:#852282;}
	.st21{clip-path:url(#SVGID_2_);fill:#862382;}
	.st22{clip-path:url(#SVGID_2_);fill:#872483;}
	.st23{clip-path:url(#SVGID_2_);fill:#872583;}
	.st24{clip-path:url(#SVGID_2_);fill:#882683;}
	.st25{clip-path:url(#SVGID_2_);fill:#892683;}
	.st26{clip-path:url(#SVGID_2_);fill:#8A2783;}
	.st27{clip-path:url(#SVGID_2_);fill:#8B2883;}
	.st28{clip-path:url(#SVGID_2_);fill:#8C2983;}
	.st29{clip-path:url(#SVGID_2_);fill:#8D2A83;}
	.st30{clip-path:url(#SVGID_2_);fill:#8E2A84;}
	.st31{clip-path:url(#SVGID_2_);fill:#8F2B84;}
	.st32{clip-path:url(#SVGID_2_);fill:#8F2C84;}
	.st33{clip-path:url(#SVGID_2_);fill:#902D84;}
	.st34{clip-path:url(#SVGID_2_);fill:#912E84;}
	.st35{clip-path:url(#SVGID_2_);fill:#922F84;}
	.st36{clip-path:url(#SVGID_2_);fill:#932F84;}
	.st37{clip-path:url(#SVGID_2_);fill:#943085;}
	.st38{clip-path:url(#SVGID_2_);fill:#953185;}
	.st39{clip-path:url(#SVGID_2_);fill:#963285;}
	.st40{clip-path:url(#SVGID_2_);fill:#973385;}
	.st41{clip-path:url(#SVGID_2_);fill:#983485;}
	.st42{clip-path:url(#SVGID_2_);fill:#993585;}
	.st43{clip-path:url(#SVGID_2_);fill:#9A3585;}
	.st44{clip-path:url(#SVGID_2_);fill:#9B3685;}
	.st45{clip-path:url(#SVGID_2_);fill:#9C3786;}
	.st46{clip-path:url(#SVGID_2_);fill:#9D3886;}
	.st47{clip-path:url(#SVGID_2_);fill:#9E3986;}
	.st48{clip-path:url(#SVGID_2_);fill:#9F3A86;}
	.st49{clip-path:url(#SVGID_2_);fill:#A03B86;}
	.st50{clip-path:url(#SVGID_2_);fill:#A13C86;}
	.st51{clip-path:url(#SVGID_2_);fill:#A23D87;}
	.st52{clip-path:url(#SVGID_2_);fill:#A33E87;}
	.st53{clip-path:url(#SVGID_2_);fill:#A43F87;}
	.st54{clip-path:url(#SVGID_2_);fill:#A54087;}
	.st55{clip-path:url(#SVGID_2_);fill:#A64087;}
	.st56{clip-path:url(#SVGID_2_);fill:#A74187;}
	.st57{clip-path:url(#SVGID_2_);fill:#A84287;}
	.st58{clip-path:url(#SVGID_2_);fill:#A94388;}
	.st59{clip-path:url(#SVGID_2_);fill:#AA4488;}
	.st60{clip-path:url(#SVGID_2_);fill:#AB4588;}
	.st61{clip-path:url(#SVGID_2_);fill:#AC4688;}
	.st62{clip-path:url(#SVGID_2_);fill:#AD4788;}
	.st63{clip-path:url(#SVGID_2_);fill:#AE4888;}
	.st64{clip-path:url(#SVGID_2_);fill:#AF4988;}
	.st65{clip-path:url(#SVGID_2_);fill:#B04A89;}
	.st66{clip-path:url(#SVGID_2_);fill:#B24B89;}
	.st67{clip-path:url(#SVGID_2_);fill:#B34C89;}
	.st68{clip-path:url(#SVGID_2_);fill:#B44D89;}
	.st69{clip-path:url(#SVGID_2_);fill:#B54E89;}
	.st70{clip-path:url(#SVGID_2_);fill:#B64F89;}
	.st71{clip-path:url(#SVGID_2_);fill:#B7508A;}
	.st72{clip-path:url(#SVGID_2_);fill:#B8518A;}
	.st73{clip-path:url(#SVGID_2_);fill:#B9528A;}
	.st74{clip-path:url(#SVGID_2_);fill:#BA538A;}
	.st75{clip-path:url(#SVGID_2_);fill:#BB548A;}
	.st76{clip-path:url(#SVGID_2_);fill:#BD558A;}
	.st77{clip-path:url(#SVGID_2_);fill:#BE568B;}
	.st78{clip-path:url(#SVGID_2_);fill:#BF578B;}
	.st79{clip-path:url(#SVGID_2_);fill:#C0588B;}
	.st80{clip-path:url(#SVGID_2_);fill:#C1598B;}
	.st81{clip-path:url(#SVGID_2_);fill:#C25A8B;}
	.st82{clip-path:url(#SVGID_2_);fill:#C35B8B;}
	.st83{clip-path:url(#SVGID_2_);fill:#C45C8C;}
	.st84{clip-path:url(#SVGID_2_);fill:#C65D8C;}
	.st85{clip-path:url(#SVGID_2_);fill:#C75E8C;}
	.st86{clip-path:url(#SVGID_2_);fill:#C85F8C;}
	.st87{clip-path:url(#SVGID_2_);fill:#C9608C;}
	.st88{clip-path:url(#SVGID_2_);fill:#CA618C;}
	.st89{clip-path:url(#SVGID_2_);fill:#CB628D;}
	.st90{clip-path:url(#SVGID_2_);fill:#CC638D;}
	.st91{clip-path:url(#SVGID_2_);fill:#CE648D;}
	.st92{clip-path:url(#SVGID_2_);fill:#CF668D;}
	.st93{clip-path:url(#SVGID_2_);fill:#D0678D;}
	.st94{clip-path:url(#SVGID_2_);fill:#D1688D;}
	.st95{clip-path:url(#SVGID_2_);fill:#D2698E;}
	.st96{clip-path:url(#SVGID_2_);fill:#D36A8E;}
	.st97{clip-path:url(#SVGID_2_);fill:#D56B8E;}
	.st98{clip-path:url(#SVGID_2_);fill:#D66C8E;}
	.st99{clip-path:url(#SVGID_2_);fill:#D76D8E;}
	.st100{clip-path:url(#SVGID_2_);fill:#D86E8E;}
	.st101{clip-path:url(#SVGID_2_);fill:#D96F8F;}
	.st102{clip-path:url(#SVGID_2_);fill:#DB708F;}
	.st103{clip-path:url(#SVGID_2_);fill:#DC718F;}
	.st104{clip-path:url(#SVGID_2_);fill:#DD728F;}
	.st105{clip-path:url(#SVGID_2_);fill:#DE748F;}
	.st106{clip-path:url(#SVGID_2_);fill:#DF758F;}
	.st107{clip-path:url(#SVGID_2_);fill:#E17690;}
	.st108{clip-path:url(#SVGID_2_);fill:#E27790;}
	.st109{clip-path:url(#SVGID_2_);fill:#E37890;}
	.st110{clip-path:url(#SVGID_2_);fill:#E47990;}
	.st111{clip-path:url(#SVGID_2_);fill:#E57A90;}
	.st112{clip-path:url(#SVGID_2_);fill:#E77B90;}
	.st113{clip-path:url(#SVGID_2_);fill:#E87C91;}
	.st114{clip-path:url(#SVGID_2_);fill:#E97D91;}
	.st115{clip-path:url(#SVGID_2_);fill:#EA7F91;}
	.st116{clip-path:url(#SVGID_2_);fill:#EC8091;}
	.st117{clip-path:url(#SVGID_2_);fill:#ED8191;}
	.st118{clip-path:url(#SVGID_2_);fill:#EE8292;}
	.st119{clip-path:url(#SVGID_2_);fill:#EF8392;}
	.st120{clip-path:url(#SVGID_2_);fill:#F18492;}
	.st121{clip-path:url(#SVGID_2_);fill:#F28592;}
	.st122{clip-path:url(#SVGID_2_);fill:#F38692;}
	.st123{clip-path:url(#SVGID_2_);fill:#F48892;}
	.st124{clip-path:url(#SVGID_2_);fill:#F58993;}
	.st125{clip-path:url(#SVGID_2_);fill:#F78A93;}
	.st126{clip-path:url(#SVGID_2_);fill:#F88B93;}
	.st127{fill:url(#SVGID_3_);}
	.st128{fill:url(#SVGID_4_);}
	.st129{fill:url(#SVGID_5_);}
	.st130{fill:#FCC29F;}
	.st131{fill:#FBA999;}
	.st132{opacity:0.4;fill:#0B0244;}
</style>
<g>
	<g>
		<g>
			<defs>
				<polygon id="SVGID_1_" points="88.3,160.1 268.9,5.1 104,118.4 				"/>
			</defs>
			<clipPath id="SVGID_2_">
				<use xlink:href="#SVGID_1_"  style="overflow:visible;"/>
			</clipPath>
			<rect x="88.3" y="5.1" class="st0" width="180.6" height="155"/>
			<path class="st0" d="M87.3,140V61.7h-6.1c12.3-24.1,30.2-45.8,52.3-64v6.4h136.4v157H87.3V140z"/>
			<path class="st0" d="M87.3,140V62.3h-4.4c12.3-23.9,30-45.4,51.9-63.5v5.3h135.1v157H87.3V140z"/>
			<path class="st1" d="M87.3,140V62.9h-2.7c12.2-23.7,29.8-45.1,51.5-63v4.3h133.7v157H87.3V140z"/>
			<path class="st1" d="M87.3,140V63.4h-0.9c12.1-23.5,29.5-44.7,51.1-62.5v3.2h132.4v157H87.3V140z"/>
			<path class="st2" d="M87.3,140v-39.3V72.9h-3.5c1.3-3,2.7-5.9,4.2-8.9c12-23.3,29.3-44.4,50.7-62v2.1h131.1v157H87.3V140z"/>
			<path class="st2" d="M87.3,140v-39V82.4h-5.4c2.3-6.1,4.9-12,7.9-17.8c11.9-23.2,29.1-44,50.3-61.5v1h129.8v157H87.3V140z"/>
			<path class="st3" d="M87.3,140v-38.7V82.9h-3.6c2.3-6,4.9-11.9,7.8-17.6c11.8-23,28.8-43.7,49.9-61.1c2.6-2.2,5.3-4.3,8.1-6.4
				v6.3h120.4v157H87.3V140z"/>
			<path class="st3" d="M87.3,140v-38.4V83.3h-1.8c2.2-6,4.8-11.8,7.8-17.5c11.7-22.8,28.6-43.3,49.5-60.6c2.6-2.2,5.3-4.3,8-6.3
				v5.1h119.1v157H87.3V140z"/>
			<path class="st4" d="M87.3,140v-38.1h-5.7c3.1-12.3,7.6-24.2,13.3-35.5c11.6-22.6,28.4-43,49.1-60.1c2.6-2.1,5.2-4.2,8-6.3v4
				h117.9v157H87.3V140z"/>
			<path class="st5" d="M87.3,140v-37.8h-3.9c3-12.2,7.5-24,13.2-35.2c11.5-22.4,28.1-42.6,48.7-59.6c2.6-2.1,5.2-4.2,7.9-6.2v2.9
				h116.6v157H87.3V140z"/>
			<path class="st6" d="M80.7,140c0-51.3,25.2-97.8,66-131.5c2.5-2.1,5.2-4.2,7.8-6.2v1.7h115.4v157H87.3V140H80.7z"/>
			<path class="st7" d="M82.5,140c0-50.9,25-97,65.5-130.4c5.1-4.2,10.4-8.1,15.9-11.9v6.4h106v157H87.3V140H82.5z"/>
			<path class="st8" d="M84.4,140c0-50.5,24.8-96.2,64.9-129.3c5-4.1,10.3-8.1,15.7-11.8v5.2h104.8v157H87.3V140H84.4z"/>
			<path class="st9" d="M86.2,140c0-50.1,24.6-95.4,64.4-128.2c5-4.1,10.2-8,15.6-11.7v4h103.7v157H88.8v6.6c-0.6-3-1-6-1.4-9.1
				C86.6,152.5,86.2,146.3,86.2,140z"/>
			<path class="st10" d="M88.1,140c0-49.7,24.4-94.6,63.8-127.1c4.9-4.1,10.1-7.9,15.5-11.6v2.8h102.5v157H90.6v6.3
				c-0.6-3-1-6-1.4-9C88.5,152.4,88.1,146.2,88.1,140z"/>
			<path class="st11" d="M90,140c0-49.2,24.2-93.8,63.3-126.1c4.9-4,10-7.9,15.3-11.5v1.6h101.3v157H92.5v6.1c-0.5-3-1-5.9-1.4-8.9
				C90.4,152.3,90,146.2,90,140z"/>
			<path class="st12" d="M91.8,140c0-48.8,24-93,62.7-125c4.8-4,9.9-7.8,15.2-11.4v0.5h100.1v157H94.3v5.8c-0.5-2.9-1-5.9-1.4-8.8
				C92.2,152.1,91.8,146.1,91.8,140z"/>
			<path class="st13" d="M93.7,140c0-48.4,23.8-92.2,62.2-123.9c4.8-4,9.8-7.7,15.1-11.3c2.6-1.8,5.3-3.5,8-5.2v4.5h90.9v157H96.1
				v5.6c-0.5-2.9-1-5.8-1.4-8.8C94.1,152,93.7,146.1,93.7,140z"/>
			<path class="st14" d="M95.6,140c0-48,23.6-91.4,61.6-122.8C162,13.3,167,9.6,172.2,6c2.6-1.8,5.3-3.5,8-5.2v3.2h89.8v157H98v5.4
				c-0.5-2.9-1-5.8-1.3-8.7C95.9,151.9,95.6,146,95.6,140z"/>
			<path class="st15" d="M97.4,140c0-47.5,23.4-90.6,61.1-121.7c9.4-7.8,19.8-14.8,30.9-21v6.8h80.5v157H99.8v5.1
				c-0.5-2.8-1-5.7-1.3-8.6C97.8,151.8,97.4,146,97.4,140z"/>
			<path class="st16" d="M99.3,140c0-47.1,23.1-89.8,60.6-120.6c9.4-7.7,19.6-14.7,30.6-20.8v5.5h79.4v157H101.7v4.9
				c-0.5-2.8-1-5.7-1.3-8.5C99.6,151.7,99.3,145.9,99.3,140z"/>
			<path class="st17" d="M101.1,140c0-46.7,22.9-88.9,60-119.5c9.3-7.6,19.4-14.6,30.3-20.6v4.3h78.4v157H103.5v4.7
				c-0.5-2.8-1-5.6-1.3-8.5C101.5,151.6,101.1,145.9,101.1,140z"/>
			<path class="st18" d="M103,140c0-46.3,22.7-88.1,59.5-118.4c9.2-7.6,19.2-14.4,30-20.5v3h77.4v157H105.4v4.4
				c-0.5-2.8-0.9-5.6-1.3-8.4C103.4,151.5,103,145.8,103,140z"/>
			<path class="st19" d="M104.9,140c0-45.8,22.5-87.3,58.9-117.4c9.1-7.5,19.1-14.3,29.8-20.3v1.7h76.3v157H107.2v4.2
				c-0.5-2.7-0.9-5.5-1.3-8.3C105.2,151.4,104.9,145.7,104.9,140z"/>
			<path class="st20" d="M106.7,140c0-45.4,22.3-86.5,58.4-116.3c9-7.4,18.9-14.2,29.5-20.1v0.4h75.3v157H109v4
				c-0.5-2.7-0.9-5.5-1.3-8.2C107.1,151.3,106.7,145.7,106.7,140z"/>
			<path class="st21" d="M108.6,140c0-45,22.1-85.7,57.8-115.2c8.9-7.4,18.7-14,29.2-19.9c2.6-1.5,5.3-2.9,8-4.2v3.4h66.2v157h-159
				v3.7c-0.5-2.7-0.9-5.4-1.3-8.2C108.9,151.2,108.6,145.6,108.6,140z"/>
			<path class="st22" d="M110.5,140c0-44.6,21.9-84.9,57.3-114.1c8.8-7.3,18.5-13.9,28.9-19.7c5.2-2.9,10.6-5.6,16.1-8.1v6h57.1v157
				H112.7v3.5c-0.5-2.7-0.9-5.4-1.2-8.1C110.8,151.1,110.5,145.6,110.5,140z"/>
			<path class="st23" d="M112.3,140c0-44.1,21.7-84.1,56.7-113c8.8-7.2,18.4-13.8,28.7-19.5c5.2-2.9,10.5-5.5,16-8v4.6h56.2v157
				H114.6v3.3c-0.5-2.6-0.9-5.3-1.2-8C112.7,151,112.3,145.5,112.3,140z"/>
			<path class="st24" d="M114.2,140c0-43.7,21.5-83.3,56.2-111.9c8.7-7.2,18.2-13.6,28.4-19.3c5.1-2.8,10.4-5.5,15.8-7.9v3.3h55.3
				v157H116.4v3c-0.5-2.6-0.9-5.3-1.2-7.9C114.5,150.9,114.2,145.5,114.2,140z"/>
			<path class="st25" d="M116.1,140c0-43.3,21.3-82.5,55.6-110.8c8.6-7.1,18-13.5,28.1-19.1c5.1-2.8,10.3-5.4,15.7-7.9v1.9h54.4v157
				H118.2v2.8c-0.5-2.6-0.9-5.2-1.2-7.8C116.4,150.8,116.1,145.4,116.1,140z"/>
			<path class="st26" d="M117.9,140c0-42.9,21.1-81.7,55.1-109.8c8.5-7,17.8-13.4,27.8-19c5-2.8,10.2-5.4,15.5-7.8v0.6h53.5v157
				H120.1v2.6c-0.5-2.6-0.9-5.2-1.2-7.8C118.2,150.7,117.9,145.4,117.9,140z"/>
			<path class="st27" d="M119.8,140c0-42.4,20.8-80.9,54.6-108.7c16.9-13.9,36.9-25.2,59.2-32.9v5.7h36.3v157h-148v2.3
				c-0.5-2.5-0.9-5.1-1.2-7.7C120.1,150.6,119.8,145.3,119.8,140z"/>
			<path class="st28" d="M121.6,140c0-42,20.6-80,54-107.6c16.7-13.8,36.6-24.9,58.6-32.6v4.3h35.6v157H123.8v2.1
				c-0.5-2.5-0.9-5.1-1.2-7.6C122,150.5,121.6,145.3,121.6,140z"/>
			<path class="st29" d="M123.5,140c0-41.6,20.4-79.2,53.5-106.5c16.5-13.6,36.2-24.7,58-32.3v2.9h34.9v157H125.6v1.9
				c-0.5-2.5-0.8-5-1.2-7.5C123.8,150.4,123.5,145.2,123.5,140z"/>
			<path class="st30" d="M125.4,140c0-41.2,20.2-78.4,52.9-105.4c16.3-13.5,35.8-24.4,57.4-31.9v1.4h34.2v157H127.4v1.6
				c-0.5-2.5-0.8-5-1.1-7.5C125.7,150.2,125.4,145.2,125.4,140z"/>
			<path class="st31" d="M127.2,140c0-40.7,20-77.6,52.4-104.3c16.2-13.3,35.4-24.2,56.8-31.6v0h33.4v157H129.3v1.4
				c-0.5-2.4-0.8-4.9-1.1-7.4C127.5,150.1,127.2,145.1,127.2,140z"/>
			<path class="st32" d="M129.1,140c0-40.3,19.8-76.8,51.8-103.2c16-13.2,35.1-23.9,56.2-31.3c5.3-1.8,10.7-3.5,16.3-4.9v3.5h16.5
				v157H131.1v1.2c-0.4-2.4-0.8-4.9-1.1-7.3C129.4,150,129.1,145.1,129.1,140z"/>
			<path class="st33" d="M131,140c0-39.9,19.6-76,51.3-102.1c15.8-13.1,34.7-23.6,55.7-31c10.5-3.7,21.5-6.5,32.9-8.4l-0.9,5.6v157
				H133v0.9c-0.4-2.4-0.8-4.8-1.1-7.2C131.3,149.9,131,145,131,140z"/>
			<path class="st34" d="M132.8,140c0-39.5,19.4-75.2,50.7-101.1c15.7-12.9,34.3-23.4,55.1-30.6C249,4.7,259.9,1.9,271.1,0l-1.2,4.1
				v157H134.8v0.7c-0.4-2.4-0.8-4.8-1.1-7.2C133.1,149.8,132.8,144.9,132.8,140z"/>
			<path class="st35" d="M134.7,140c0-39,19.2-74.4,50.2-100c15.5-12.8,34-23.1,54.5-30.3c10.3-3.6,21-6.4,32.2-8.2l-1.6,2.6v157
				H136.7v0.5c-0.4-2.3-0.8-4.7-1.1-7.1C135,149.7,134.7,144.9,134.7,140z"/>
			<path class="st36" d="M136.5,140c0-38.6,19-73.6,49.6-98.9c15.3-12.7,33.6-22.9,53.9-30c10.1-3.5,20.8-6.3,31.8-8.1l-2,1.1v157
				H138.5v0.2c-0.4-2.3-0.8-4.6-1.1-7C136.8,149.6,136.5,144.8,136.5,140z"/>
			<path class="st37" d="M138.4,140c0-38.2,18.8-72.8,49.1-97.8c15.2-12.5,33.2-22.6,53.3-29.6c10-3.5,20.6-6.2,31.5-8.1h-2.4v156.6
				H141.8v6.8C139.6,158.9,138.4,149.6,138.4,140z"/>
			<path class="st38" d="M140.3,140c0-37.8,18.6-72,48.6-96.7c15-12.4,32.9-22.4,52.7-29.3c9.9-3.5,20.3-6.1,31.1-8h-2.7v155.1
				H143.6v6.5C141.4,158.7,140.3,149.5,140.3,140z"/>
			<path class="st39" d="M142.1,140c0-37.3,18.3-71.2,48-95.6c14.8-12.2,32.5-22.1,52.1-29C252,12,262.3,9.3,273,7.5h-3.1v153.6
				H145.5v6.2C143.3,158.5,142.1,149.4,142.1,140z"/>
			<path class="st40" d="M144,140c0-36.9,18.1-70.3,47.5-94.5c14.7-12.1,32.1-21.9,51.5-28.7c9.7-3.4,19.9-6,30.4-7.8h-3.5v152
				H147.3v5.9C145.1,158.3,144,149.2,144,140z"/>
			<path class="st41" d="M145.9,140c0-36.5,17.9-69.5,46.9-93.5c14.5-12,31.8-21.6,50.9-28.3c9.6-3.3,19.6-5.9,30.1-7.7h-3.9v150.5
				H149.1v5.6C147,158,145.9,149.1,145.9,140z"/>
			<path class="st42" d="M147.7,140c0-36.1,17.7-68.7,46.4-92.4c14.3-11.8,31.4-21.4,50.3-28c9.5-3.3,19.4-5.9,29.7-7.6h-4.2v149
				h-119v5.3C148.8,157.8,147.7,149,147.7,140z"/>
			<path class="st43" d="M149.6,140c0-35.6,17.5-67.9,45.8-91.3c14.2-11.7,31-21.1,49.7-27.7c9.4-3.3,19.2-5.8,29.4-7.5h-4.6v147.5
				H152.8v5C150.7,157.6,149.6,148.9,149.6,140z"/>
			<path class="st44" d="M151.4,140c0-35.2,17.3-67.1,45.3-90.2c14-11.5,30.6-20.9,49.1-27.3c9.2-3.2,19-5.7,29-7.4h-5v146H154.6
				v4.6C152.5,157.4,151.4,148.8,151.4,140z"/>
			<path class="st45" d="M153.3,140c0-34.8,17.1-66.3,44.7-89.1c13.8-11.4,30.3-20.6,48.5-27c9.1-3.2,18.7-5.7,28.7-7.3h-5.4v144.5
				H156.4v4.3C154.4,157.2,153.3,148.7,153.3,140z"/>
			<path class="st46" d="M155.2,140c0-34.4,16.9-65.5,44.2-88c13.7-11.3,29.9-20.4,48-26.7c9-3.1,18.5-5.6,28.3-7.3h-5.8v143H158.2
				v4C156.2,157,155.2,148.6,155.2,140z"/>
			<path class="st47" d="M157,140c0-33.9,16.7-64.7,43.6-86.9C214.2,42,230.2,33,248,26.7c8.9-3.1,18.3-5.5,28-7.2h-6.1v141.5H160.1
				v3.7C158.1,156.8,157,148.5,157,140z"/>
			<path class="st48" d="M158.9,140c0-33.5,16.5-63.9,43.1-85.8c13.3-11,29.2-19.9,46.8-26c8.8-3.1,18-5.5,27.6-7.1h-6.5v140h-108
				v3.4C159.9,156.6,158.9,148.4,158.9,140z"/>
			<path class="st49" d="M160.8,140c0-33.1,16.3-63.1,42.6-84.8c13.1-10.8,28.8-19.6,46.2-25.7c8.7-3,17.8-5.4,27.3-7h-6.9v138.5
				H163.7v3.1C161.8,156.4,160.8,148.3,160.8,140z"/>
			<path class="st50" d="M162.6,140c0-32.7,16.1-62.3,42-83.7c13-10.7,28.4-19.4,45.6-25.4c4.3-1.5,8.7-2.8,13.2-4
				c2.2-0.6,4.5-1.1,6.8-1.6h-0.3v135.7H165.5v2.8C163.6,156.2,162.6,148.2,162.6,140z"/>
			<path class="st51" d="M164.5,140c0-32.3,15.8-61.5,41.5-82.6c12.8-10.6,28.1-19.1,45-25c4.2-1.5,8.6-2.8,13-3.9
				c2.2-0.6,4.5-1.1,6.7-1.6h-0.8v134.2H167.4v2.5C165.5,156,164.5,148.1,164.5,140z"/>
			<path class="st52" d="M166.3,140c0-31.8,15.6-60.6,40.9-81.5c12.6-10.4,27.7-18.9,44.4-24.7c4.2-1.5,8.5-2.8,12.8-3.9
				c2.2-0.6,4.4-1.1,6.6-1.6h-1.2v132.7H169.2v2.2C167.3,155.7,166.3,148,166.3,140z"/>
			<path class="st53" d="M168.2,140c0-31.4,15.4-59.8,40.4-80.4C221,49.3,235.9,41,252.4,35.2c4.1-1.4,8.3-2.7,12.7-3.8
				c2.2-0.6,4.3-1.1,6.5-1.5h-1.7v131.2H171v1.9C169.2,155.5,168.2,147.9,168.2,140z"/>
			<path class="st54" d="M170.1,140c0-31,15.2-59,39.8-79.3c12.3-10.2,27-18.4,43.2-24c4.1-1.4,8.2-2.7,12.5-3.8
				c2.1-0.5,4.3-1.1,6.5-1.5h-2.2v129.7h-97.1v1.5C171,155.3,170.1,147.8,170.1,140z"/>
			<path class="st55" d="M171.9,140c0-30.6,15-58.2,39.3-78.2c12.1-10,26.6-18.1,42.6-23.7c4-1.4,8.1-2.6,12.3-3.7
				c2.1-0.5,4.2-1,6.4-1.5h-2.6v128.2h-95.2v1.2C172.9,155.1,171.9,147.7,171.9,140z"/>
			<path class="st56" d="M173.8,140c0-30.1,14.8-57.4,38.7-77.2c12-9.9,26.2-17.9,42-23.4c4-1.4,8-2.6,12.2-3.7
				c2.1-0.5,4.2-1,6.3-1.5h-3.1v126.7h-93.4v0.9C174.7,154.9,173.8,147.5,173.8,140z"/>
			<path class="st57" d="M175.7,140c0-29.7,14.6-56.6,38.2-76.1c11.8-9.7,25.8-17.6,41.4-23.1c3.9-1.4,7.9-2.6,12-3.6
				c2-0.5,4.1-1,6.2-1.4h-3.6v125.3h-91.6v0.6C176.6,154.7,175.7,147.4,175.7,140z"/>
			<path class="st58" d="M177.5,140c0-29.3,14.4-55.8,37.6-75c11.6-9.6,25.5-17.4,40.9-22.7c3.8-1.3,7.8-2.5,11.8-3.6
				c2-0.5,4-1,6.1-1.4h-4v123.8h-89.8v0.3C178.4,154.5,177.5,147.3,177.5,140z"/>
			<path class="st59" d="M179.4,140c0-28.9,14.2-55,37.1-73.9c11.5-9.5,25.1-17.1,40.3-22.4c3.8-1.3,7.7-2.5,11.6-3.5
				c2-0.5,4-1,6-1.4h-4.5v122.3h-86.5v5.1c-0.5-1.7-1-3.4-1.4-5.1C180.3,154.3,179.4,147.2,179.4,140z"/>
			<path class="st60" d="M181.2,140c0-28.4,14-54.2,36.6-72.8c11.3-9.3,24.7-16.9,39.7-22.1c3.7-1.3,7.6-2.5,11.5-3.5
				c2-0.5,3.9-1,5.9-1.4h-5v120.8h-84.7v4.7c-0.5-1.6-1-3.3-1.4-5C182.1,154.1,181.2,147.1,181.2,140z"/>
			<path class="st61" d="M183.1,140c0-28,13.8-53.4,36-71.7c11.1-9.2,24.4-16.6,39.1-21.7c3.7-1.3,7.4-2.4,11.3-3.4
				c1.9-0.5,3.9-0.9,5.8-1.4h-5.4v119.3H187v4.3c-0.5-1.6-1-3.3-1.4-4.9C184,153.9,183.1,147,183.1,140z"/>
			<path class="st62" d="M185,140c0-27.6,13.6-52.6,35.5-70.6c11-9,24-16.4,38.5-21.4c3.6-1.3,7.3-2.4,11.1-3.4h-0.2v116.5h-81.1
				v3.9c-0.5-1.6-0.9-3.2-1.4-4.8C185.8,153.6,185,146.9,185,140z"/>
			<path class="st63" d="M186.8,140c0-27.2,13.3-51.7,34.9-69.5c10.8-8.9,23.6-16.1,37.9-21.1c3.6-1.2,7.2-2.3,11-3.3h-0.7v115
				h-79.3v3.5c-0.5-1.6-0.9-3.2-1.3-4.8C187.7,153.4,186.8,146.8,186.8,140z"/>
			<path class="st64" d="M188.7,140c0-26.7,13.1-50.9,34.4-68.5c10.6-8.8,23.3-15.8,37.3-20.7c3.5-1.2,7.1-2.3,10.8-3.3h-1.3v113.5
				h-77.5v3.1c-0.5-1.5-0.9-3.1-1.3-4.7C189.5,153.2,188.7,146.7,188.7,140z"/>
			<path class="st65" d="M190.6,140c0-26.3,12.9-50.1,33.8-67.4c10.4-8.6,22.9-15.6,36.7-20.4c3.5-1.2,7-2.3,10.6-3.2h-1.8v112.1
				h-75.7v2.7c-0.5-1.5-0.9-3.1-1.3-4.6C191.4,153,190.6,146.6,190.6,140z"/>
			<path class="st66" d="M192.4,140c0-25.9,12.7-49.3,33.3-66.3c10.3-8.5,22.5-15.3,36.1-20.1c3.4-1.2,6.9-2.2,10.4-3.2h-2.4v110.6
				h-72.4v6.8c-1.1-2.9-2-5.9-2.8-9C193.2,152.8,192.4,146.5,192.4,140z"/>
			<path class="st67" d="M194.3,140c0-25.5,12.5-48.5,32.7-65.2c10.1-8.3,22.2-15.1,35.5-19.8c3.3-1.2,6.8-2.2,10.3-3.1h-2.9v109.1
				h-70.6v6.4c-1.1-2.9-2-5.8-2.8-8.8C195.1,152.6,194.3,146.4,194.3,140z"/>
			<path class="st68" d="M196.1,140c0-25,12.3-47.7,32.2-64.1c9.9-8.2,21.8-14.8,34.9-19.4c3.3-1.1,6.7-2.2,10.1-3h-3.5v107.7h-68.8
				v5.9c-1.1-2.8-2-5.7-2.7-8.7C196.9,152.4,196.1,146.3,196.1,140z"/>
			<path class="st69" d="M198,140c0-24.6,12.1-46.9,31.6-63c9.8-8.1,21.4-14.6,34.3-19.1c3.2-1.1,6.5-2.1,9.9-3h-4v106.2h-67v5.4
				c-1.1-2.8-1.9-5.6-2.7-8.5C198.8,152.2,198,146.2,198,140z"/>
			<path class="st70" d="M199.9,140c0-24.2,11.9-46.1,31.1-61.9c9.6-7.9,21-14.3,33.7-18.8c3.2-1.1,6.4-2.1,9.8-2.9h-4.6v104.7
				h-65.2v5c-1-2.7-1.9-5.5-2.6-8.4C200.6,152,199.9,146.1,199.9,140z"/>
			<path class="st71" d="M201.7,140c0-23.8,11.7-45.3,30.6-60.9c9.4-7.8,20.7-14.1,33.2-18.4c3.1-1.1,6.3-2.1,9.6-2.9h-5.1v103.3
				h-63.5v4.5c-1-2.7-1.9-5.4-2.6-8.2C202.5,151.8,201.7,146,201.7,140z"/>
			<path class="st72" d="M203.6,140c0-23.3,11.5-44.5,30-59.8c9.3-7.6,20.3-13.8,32.6-18.1c3.1-1.1,6.2-2,9.4-2.8h-5.7v101.8h-61.7
				v4.1c-1-2.6-1.8-5.3-2.5-8.1C204.3,151.5,203.6,145.9,203.6,140z"/>
			<path class="st73" d="M205.5,140c0-22.9,11.3-43.7,29.5-58.7c9.1-7.5,19.9-13.6,32-17.8c3-1,6.1-2,9.2-2.8h-6.2v100.3H210v3.6
				c-1-2.6-1.8-5.3-2.5-8C206.2,151.3,205.5,145.7,205.5,140z"/>
			<path class="st74" d="M207.3,140c0-22.5,11-42.9,28.9-57.6c8.9-7.4,19.6-13.3,31.4-17.5c3-1,6-1.9,9.1-2.7h-6.8v98.9h-58.1v3.2
				c-1-2.6-1.8-5.2-2.4-7.8C208,151.1,207.3,145.6,207.3,140z"/>
			<path class="st75" d="M209.2,140c0-22.1,10.8-42,28.4-56.5c8.8-7.2,19.2-13.1,30.8-17.1c1.4-0.5,2.9-1,4.4-1.4h-2.9v96.1h-56.3
				v2.7c-0.9-2.5-1.7-5.1-2.4-7.7C209.9,150.9,209.2,145.5,209.2,140z"/>
			<path class="st76" d="M211,140c0-21.6,10.6-41.2,27.8-55.4c8.6-7.1,18.8-12.8,30.2-16.8c1.4-0.5,2.9-1,4.3-1.4h-3.5v94.7h-54.6
				v2.2c-0.9-2.5-1.7-5-2.3-7.5C211.7,150.7,211,145.4,211,140z"/>
			<path class="st77" d="M212.9,140c0-21.2,10.4-40.4,27.3-54.3c8.4-7,18.5-12.6,29.6-16.5c1.4-0.5,2.8-0.9,4.2-1.4h-4.1v93.2h-52.8
				v1.8c-0.9-2.4-1.7-4.9-2.3-7.4C213.6,150.5,212.9,145.3,212.9,140z"/>
			<path class="st78" d="M214.8,140c0-20.8,10.2-39.6,26.7-53.2c8.3-6.8,18.1-12.3,29-16.1h-0.6v90.4h-51v1.3
				c-0.9-2.4-1.6-4.8-2.2-7.2C215.4,150.3,214.8,145.2,214.8,140z"/>
			<path class="st79" d="M216.6,140c0-20.4,10-38.8,26.2-52.2c8.1-6.7,17.7-12.1,28.4-15.8h-1.4v89h-49.2v0.9
				c-0.9-2.3-1.6-4.7-2.2-7.1C217.3,150.1,216.6,145.1,216.6,140z"/>
			<path class="st80" d="M218.5,140c0-19.9,9.8-38,25.6-51.1c7.9-6.5,17.4-11.8,27.8-15.5h-2.1v87.6h-47.5v0.4
				c-0.9-2.3-1.6-4.6-2.2-6.9C219.1,149.9,218.5,145,218.5,140z"/>
			<path class="st81" d="M220.4,140c0-19.5,9.6-37.2,25.1-50c7.8-6.4,17-11.6,27.2-15.1h-2.8v86.2h-42.8v6.5
				C222.8,159.1,220.4,149.8,220.4,140z"/>
			<path class="st82" d="M222.2,140c0-19.1,9.4-36.4,24.6-48.9c7.6-6.3,16.6-11.3,26.6-14.8h-3.5v84.8h-41.1v5.9
				C224.6,158.7,222.2,149.6,222.2,140z"/>
			<path class="st83" d="M224.1,140c0-18.7,9.2-35.6,24-47.8c7.4-6.1,16.2-11.1,26.1-14.5h-4.3v83.4h-39.4v5.3
				C226.4,158.2,224.1,149.4,224.1,140z"/>
			<path class="st84" d="M225.9,140c0-18.2,9-34.8,23.5-46.7c7.2-6,15.9-10.8,25.5-14.2h-5v82h-37.6v4.7
				C228.2,157.8,225.9,149.1,225.9,140z"/>
			<path class="st85" d="M227.8,140c0-17.8,8.8-34,22.9-45.6c7.1-5.8,15.5-10.6,24.9-13.8h-5.7v80.5H234v4.1
				C230,157.4,227.8,148.9,227.8,140z"/>
			<path class="st86" d="M229.7,140c0-17.4,8.5-33.2,22.4-44.6c6.9-5.7,15.1-10.3,24.3-13.5h-6.4v79.1h-34.2v3.5
				C231.8,157,229.7,148.7,229.7,140z"/>
			<path class="st87" d="M231.5,140c0-17,8.3-32.3,21.8-43.5c3.4-2.8,7.1-5.3,11-7.5c2-1.1,4-2.1,6.1-3.1h-0.6v75.1h-32.5v2.9
				C233.6,156.6,231.5,148.5,231.5,140z"/>
			<path class="st88" d="M233.4,140c0-16.6,8.1-31.5,21.3-42.4c3.3-2.7,6.9-5.2,10.8-7.3c1.9-1.1,3.9-2.1,6-3h-1.5v73.8h-30.8v2.3
				C235.4,156.2,233.4,148.3,233.4,140z"/>
			<path class="st89" d="M235.3,140c0-16.1,7.9-30.7,20.7-41.3c3.2-2.6,6.7-5,10.5-7.1c1.9-1,3.8-2,5.8-2.9h-2.4v72.4h-29.1v1.7
				C237.2,155.8,235.3,148.1,235.3,140z"/>
			<path class="st90" d="M237.1,140c0-15.7,7.7-29.9,20.2-40.2c3.1-2.6,6.5-4.9,10.2-6.9c1.8-1,3.7-2,5.7-2.8h-3.3v71.1h-27.3v1.1
				C239.1,155.3,237.1,147.9,237.1,140z"/>
			<path class="st91" d="M239,140c0-15.3,7.5-29.1,19.6-39.1c3-2.5,6.4-4.8,9.9-6.8c1.8-1,3.6-1.9,5.5-2.8h-4.2v69.7h-25.6v0.5
				C240.9,154.9,239,147.7,239,140z"/>
			<path class="st92" d="M240.8,140c0-14.9,7.3-28.3,19.1-38c2.9-2.4,6.2-4.6,9.6-6.6c1.7-1,3.5-1.9,5.4-2.7h-5.1v68.4h-21.2v4.6
				c-1-1.5-1.9-3.1-2.7-4.7C242.7,154.5,240.8,147.4,240.8,140z"/>
			<path class="st93" d="M242.7,140c0-14.4,7.1-27.5,18.5-36.9c2.9-2.4,6-4.5,9.4-6.4h-0.7v64.4h-19.5v3.8c-1-1.5-1.9-3-2.7-4.6
				C244.5,154.1,242.7,147.2,242.7,140z"/>
			<path class="st94" d="M244.6,140c0-14,6.9-26.7,18-35.9c2.8-2.3,5.8-4.4,9.1-6.2h-1.8v63.1H252v3.1c-0.9-1.4-1.8-2.9-2.6-4.4
				C246.3,153.7,244.6,147,244.6,140z"/>
			<path class="st95" d="M246.4,140c0-13.6,6.7-25.9,17.5-34.8c2.7-2.2,5.7-4.2,8.8-6h-2.8v61.8h-13.3v6.4c-2.1-2.6-4-5.4-5.5-8.4
				C248.1,153.3,246.4,146.8,246.4,140z"/>
			<path class="st96" d="M248.3,140c0-13.2,6.5-25.1,16.9-33.7c2.6-2.2,5.5-4.1,8.5-5.8h-3.9v60.6h-11.7v5.6
				c-2.1-2.5-3.9-5.2-5.3-8.1C249.9,152.9,248.3,146.6,248.3,140z"/>
			<path class="st97" d="M250.2,140c0-12.7,6.3-24.3,16.4-32.6c2.5-2.1,5.3-4,8.3-5.6h-4.9v59.3h-10.2v4.7c-2-2.5-3.7-5.1-5.2-7.8
				C251.7,152.4,250.2,146.4,250.2,140z"/>
			<path class="st98" d="M252,140c0-12.3,6-23.4,15.8-31.5c2.4-2,5.1-3.8,8-5.4h-6v58h-8.6v3.9c-1.9-2.4-3.6-4.9-5-7.6
				C253.5,152,252,146.2,252,140z"/>
			<path class="st99" d="M253.9,140c0-11.9,5.8-22.6,15.3-30.4c2.4-1.9,4.9-3.7,7.7-5.3h-7v56.7h-7.1v3c-1.9-2.3-3.5-4.7-4.8-7.3
				C255.3,151.6,253.9,146,253.9,140z"/>
			<path class="st100" d="M255.8,140c0-11.5,5.6-21.8,14.7-29.3h-0.6v50.4h-5.5v2.1c-1.8-2.2-3.4-4.6-4.6-7
				C257.2,151.2,255.8,145.7,255.8,140z"/>
			<path class="st101" d="M257.6,140c0-11,5.4-21,14.2-28.3h-1.9v49.3h-4v1.3c-1.7-2.1-3.2-4.4-4.5-6.8
				C259,150.8,257.6,145.5,257.6,140z"/>
			<path class="st102" d="M259.5,140c0-10.6,5.2-20.2,13.6-27.2h-3.2v48.2l3.2,6.1C264.7,160.2,259.5,150.6,259.5,140z"/>
			<path class="st103" d="M261.3,140c0-10.2,5-19.4,13.1-26.1h-4.5v47.1l4.5,5C266.3,159.4,261.3,150.2,261.3,140z"/>
			<path class="st104" d="M263.2,140c0-9.8,4.8-18.6,12.5-25h-5.9v46.1l5.9,3.9C268,158.6,263.2,149.8,263.2,140z"/>
			<path class="st105" d="M265.1,140c0-4.7,1.1-9.1,3.2-13.2c1-2,2.3-3.9,3.8-5.7h-2.2v37.8h2.2c-1.5-1.8-2.7-3.7-3.8-5.7
				C266.2,149.1,265.1,144.7,265.1,140z"/>
			<path class="st106" d="M266.9,140c0-4.5,1.1-8.7,3.1-12.6h-0.1v25.1h0.1C268,148.7,266.9,144.5,266.9,140z"/>
			<path class="st107" d="M268.8,140c0-4.2,1-8.3,2.9-12h-1.8V152h1.8C269.8,148.3,268.8,144.3,268.8,140z"/>
			<path class="st108" d="M269.9,140v-29.2V140z"/>
			<path class="st109" d="M269.9,140v-27.7V140z"/>
			<path class="st110" d="M269.9,140v-26.1V140z"/>
			<path class="st111" d="M269.9,140v-24.6V140z"/>
			<path class="st112" d="M269.9,140V117V140z"/>
			<path class="st113" d="M269.9,140v-21.5V140z"/>
			<path class="st114" d="M269.9,140v-20V140z"/>
			<path class="st115" d="M269.9,140v-18.4V140z"/>
			<path class="st116" d="M269.9,140v-16.9V140z"/>
			<path class="st117" d="M269.9,140v-15.4V140z"/>
			<path class="st118" d="M269.9,140v-13.8V140z"/>
			<path class="st119" d="M269.9,140v-12.3V140z"/>
			<path class="st120" d="M269.9,140v-10.8V140z"/>
			<path class="st121" d="M269.9,140v-9.2V140z"/>
			<path class="st122" d="M269.9,140v-7.7V140z"/>
			<path class="st123" d="M269.9,140v-6.1V140z"/>
			<path class="st124" d="M269.9,140v-4.6V140z"/>
			<path class="st125" d="M269.9,140v-3.1V140z"/>
			<path class="st126" d="M269.9,140v-1.5V140z"/>
		</g>
	</g>
	<g>
		
			<linearGradient id="SVGID_3_" gradientUnits="userSpaceOnUse" x1="-155.4423" y1="257.3093" x2="-393.0444" y2="226.0031" gradientTransform="matrix(0.587 0.5044 -1.1918 0.5778 560.727 -3.3247)">
			<stop  offset="0" style="stop-color:#FCBA9D"/>
			<stop  offset="0.5634" style="stop-color:#EE8594"/>
			<stop  offset="1" style="stop-color:#E4608D"/>
		</linearGradient>
		<polygon class="st127" points="268.9,5.1 72.6,100.3 8.1,63 		"/>
		
			<linearGradient id="SVGID_4_" gradientUnits="userSpaceOnUse" x1="720.7733" y1="128.6021" x2="850.8535" y2="109.6437" gradientTransform="matrix(-0.8737 -0.3389 -1.0008 0.6881 999.496 250.4951)">
			<stop  offset="0" style="stop-color:#FCBA9D"/>
			<stop  offset="0.5634" style="stop-color:#EE8594"/>
			<stop  offset="1" style="stop-color:#E4608D"/>
		</linearGradient>
		<polygon class="st128" points="268.9,5.1 104,118.4 168.5,155.7 		"/>
		
			<linearGradient id="SVGID_5_" gradientUnits="userSpaceOnUse" x1="51.06" y1="181.68" x2="-130.5878" y2="106.0889" gradientTransform="matrix(0.866 0.5 -0.866 0.5 340.0871 33.9732)">
			<stop  offset="0" style="stop-color:#F88B93"/>
			<stop  offset="0.2064" style="stop-color:#D76D8E"/>
			<stop  offset="0.5733" style="stop-color:#A23D87"/>
			<stop  offset="0.8491" style="stop-color:#811F82"/>
			<stop  offset="1" style="stop-color:#751480"/>
		</linearGradient>
		<polygon class="st129" points="104,118.4 268.9,5.1 72.6,100.3 88.3,160.1 		"/>
	</g>
	<polygon class="st130" points="69.7,98.6 268.9,5.1 72.6,100.3 	"/>
	<polygon class="st131" points="104,118.4 268.9,5.1 106.6,119.9 	"/>
</g>
<polygon class="st132" points="227.1,164.4 49.9,203.8 91.7,228 91.7,228 93.7,229.1 117.1,227.4 128.4,249.1 158.9,266.8 "/>
</svg>
