<?xml version="1.0" encoding="utf-8"?>
<!-- Generator: Adobe Illustrator 23.0.3, SVG Export Plug-In . SVG Version: 6.00 Build 0)  -->
<svg version="1.1" id="Capa_1" xmlns="http://www.w3.org/2000/svg" xmlns:xlink="http://www.w3.org/1999/xlink" x="0px" y="0px"
	 viewBox="0 0 25.8 25.8" style="enable-background:new 0 0 25.8 25.8;" xml:space="preserve">
<style type="text/css">
	.st0{fill:#26C110;}
</style>
<g>
	<path class="st0" d="M25.6,13.7l-1.5-2.4L25,8.7c0.1-0.4,0-0.8-0.4-1l-2.5-1.4l-0.5-2.8c-0.1-0.4-0.4-0.7-0.8-0.7l-2.8-0.1
		l-1.7-2.3c-0.2-0.3-0.7-0.4-1-0.2l-2.6,1.2l-2.6-1.2C10,0,9.6,0.1,9.3,0.4L7.6,2.7L4.8,2.8C4.4,2.8,4.1,3.1,4,3.5L3.6,6.3L1.1,7.7
		c-0.3,0.2-0.5,0.6-0.4,1l0.9,2.7l-1.5,2.4c-0.2,0.3-0.2,0.8,0.1,1l2,2l-0.2,2.8c0,0.4,0.2,0.7,0.6,0.8l2.7,0.8l1.1,2.6
		c0.2,0.4,0.5,0.6,0.9,0.5l2.8-0.6l2.2,1.8c0.1,0.1,0.3,0.2,0.5,0.2s0.4-0.1,0.5-0.2l2.2-1.8l2.8,0.6c0.4,0.1,0.8-0.1,0.9-0.5
		l1.1-2.6l2.7-0.8c0.4-0.1,0.6-0.5,0.6-0.8l-0.2-2.8l2-2C25.8,14.5,25.9,14.1,25.6,13.7z M18.8,9.8l-5.7,8.5
		c-0.2,0.3-0.5,0.5-0.9,0.5c-0.3,0-0.7-0.2-0.9-0.4l-4.2-4.2c-0.3-0.3-0.3-0.8,0-1.1l1-1.1c0.3-0.3,0.7-0.3,1,0l2.7,2.8l4.5-6.7
		c0.2-0.3,0.7-0.4,1-0.2l1.2,0.8C18.9,9,19,9.5,18.8,9.8z"/>
</g>
</svg>
